<svg width="1440" height="2223" viewBox="0 0 1440 2223" fill="none" xmlns="http://www.w3.org/2000/svg">
<g opacity="0.1">
<path d="M1500.57 737.085C1500.57 737.085 966.01 154.545 739.764 293.463C513.519 432.38 174.429 1349.08 356.693 1749.06C538.956 2149.03 37.5296 2222.02 37.5296 2222.02" stroke="#00FFFF" stroke-width="0.552088" stroke-miterlimit="10"/>
<path d="M1494.49 750.22C1494.23 748.781 979.433 147.943 749.763 282.122C520.094 416.301 199.163 1330.19 369.417 1727.89C539.672 2125.59 39.7774 2205.01 39.7774 2205.01" stroke="#09FCFF" stroke-width="0.552088" stroke-miterlimit="10"/>
<path d="M1488.42 763.368C1487.91 760.488 992.876 141.35 759.762 270.779C526.648 400.208 223.908 1311.32 382.143 1706.74C540.379 2102.17 42.0246 2187.99 42.0246 2187.99" stroke="#12F9FF" stroke-width="0.552088" stroke-miterlimit="10"/>
<path d="M1482.34 776.51C1481.57 772.191 1006.31 134.737 769.75 259.443C533.193 384.15 248.643 1292.45 394.859 1685.6C541.075 2078.75 44.262 2171 44.262 2171" stroke="#1BF6FF" stroke-width="0.552088" stroke-miterlimit="10"/>
<path d="M1476.27 789.658C1475.25 783.913 1019.75 128.141 779.76 248.11C539.769 368.079 273.399 1273.57 407.594 1664.44C541.79 2055.32 46.519 2154 46.519 2154" stroke="#24F3FF" stroke-width="0.552088" stroke-miterlimit="10"/>
<path d="M1470.2 802.808C1468.93 795.622 1033.2 121.532 789.759 236.765C546.324 351.997 298.135 1254.69 420.32 1643.29C542.496 2031.89 48.7647 2136.99 48.7647 2136.99" stroke="#2DF0FF" stroke-width="0.552088" stroke-miterlimit="10"/>
<path d="M1464.11 815.945C1462.59 807.32 1046.63 114.924 799.758 225.419C552.887 335.913 322.88 1235.81 433.034 1622.12C543.19 2008.45 50.9992 2119.97 50.9992 2119.97" stroke="#36EEFF" stroke-width="0.552088" stroke-miterlimit="10"/>
<path d="M1458.04 829.098C1456.27 819.032 1060.07 108.33 809.758 214.074C559.442 319.831 347.627 1216.92 445.761 1600.97C543.895 1985.02 53.2457 2102.97 53.2457 2102.97" stroke="#3FEBFF" stroke-width="0.552088" stroke-miterlimit="10"/>
<path d="M1451.97 842.249C1449.94 830.743 1073.52 101.718 819.768 202.738C566.017 303.757 372.375 1198.06 458.497 1579.82C544.618 1961.57 55.5008 2085.97 55.5008 2085.97" stroke="#48E8FF" stroke-width="0.552088" stroke-miterlimit="10"/>
<path d="M1445.89 855.393C1443.6 842.447 1086.95 95.1116 829.759 191.394C572.562 287.676 397.113 1179.17 471.214 1558.67C545.315 1938.16 57.745 2068.96 57.745 2068.96" stroke="#51E5FF" stroke-width="0.552088" stroke-miterlimit="10"/>
<path d="M1439.82 868.547C1437.29 854.174 1100.4 88.5006 839.769 180.044C579.137 271.588 421.872 1160.29 483.95 1537.5C546.027 1914.7 59.999 2051.95 59.999 2051.95" stroke="#5AE2FF" stroke-width="0.552088" stroke-miterlimit="10"/>
<path d="M1433.74 881.688C1430.95 865.875 1113.84 81.8882 849.759 168.694C585.682 255.5 446.601 1141.41 496.666 1516.34C546.731 1891.27 62.2329 2034.95 62.2329 2034.95" stroke="#62DFFF" stroke-width="0.552088" stroke-miterlimit="10"/>
<path d="M1427.67 894.844C1424.62 877.591 1127.28 75.2757 859.762 157.358C592.24 239.44 471.352 1122.53 509.395 1495.2C547.439 1867.87 64.4782 2017.95 64.4782 2017.95" stroke="#6BDCFF" stroke-width="0.552088" stroke-miterlimit="10"/>
<path d="M1421.6 908.004C1418.3 889.309 1140.73 68.679 869.773 146.008C598.813 223.337 496.113 1103.65 522.132 1474.03C548.15 1844.41 66.7306 2000.94 66.7306 2000.94" stroke="#74D9FF" stroke-width="0.552088" stroke-miterlimit="10"/>
<path d="M1415.52 921.148C1411.96 901.013 1154.17 62.0652 879.766 134.656C605.358 207.246 520.855 1084.77 534.85 1452.87C548.845 1820.98 68.9647 1983.94 68.9647 1983.94" stroke="#7DD6FF" stroke-width="0.552088" stroke-miterlimit="10"/>
<path d="M1409.45 934.31C1405.64 912.733 1167.62 55.4537 889.779 123.319C611.936 191.183 545.608 1065.89 547.589 1431.72C549.569 1797.55 71.2171 1966.93 71.2171 1966.93" stroke="#86D3FF" stroke-width="0.552088" stroke-miterlimit="10"/>
<path d="M1403.38 947.469C1399.32 924.466 1181.07 48.8523 899.782 111.964C618.492 175.09 570.362 1047 560.318 1410.56C550.273 1774.12 73.4606 1949.93 73.4606 1949.93" stroke="#8FD1FF" stroke-width="0.552088" stroke-miterlimit="10"/>
<path d="M1397.3 960.618C1392.98 936.174 1194.51 42.2241 909.786 100.61C625.058 158.996 595.117 1028.12 573.046 1389.38C550.976 1750.67 75.7026 1932.91 75.7026 1932.91" stroke="#98CEFF" stroke-width="0.552088" stroke-miterlimit="10"/>
<path d="M1391.23 973.784C1386.66 947.898 1207.97 35.6263 919.791 89.2727C631.615 142.919 619.863 1009.24 585.777 1368.24C551.691 1727.25 77.9451 1915.91 77.9451 1915.91" stroke="#A1CBFF" stroke-width="0.552088" stroke-miterlimit="10"/>
<path d="M1385.16 986.936C1380.33 959.609 1221.42 29.0122 929.794 77.9048C638.169 126.797 644.619 990.337 598.505 1347.06C552.391 1703.77 80.186 1898.89 80.186 1898.89" stroke="#AAC8FF" stroke-width="0.552088" stroke-miterlimit="10"/>
<path d="M1379.08 1000.1C1373.99 971.335 1234.86 22.3962 939.801 66.562C644.738 110.728 669.379 971.464 611.228 1325.91C553.077 1680.36 82.4196 1881.9 82.4196 1881.9" stroke="#B3C5FF" stroke-width="0.552088" stroke-miterlimit="10"/>
<path d="M1373.01 1013.27C1367.68 983.061 1248.31 15.7963 949.808 55.2207C651.307 94.6452 694.129 952.578 623.961 1304.76C553.794 1656.95 84.663 1864.9 84.663 1864.9" stroke="#BCC2FF" stroke-width="0.552088" stroke-miterlimit="10"/>
<path d="M1379.94 985.884C1374.86 957.123 1240.38 52.0279 949.81 86.3712C659.237 120.729 691.305 917.786 615.723 1259.72C540.142 1601.65 77.9812 1853.45 78.568 1852.44" stroke="#B3B9FF" stroke-width="0.552088" stroke-miterlimit="10"/>
<path d="M1386.88 958.538C1382.06 931.226 1232.47 88.2744 949.817 117.553C667.166 146.832 688.475 883.041 607.493 1214.74C526.51 1546.43 71.2945 1842.03 72.4777 1840.01" stroke="#AAB0FF" stroke-width="0.552088" stroke-miterlimit="10"/>
<path d="M1399.5 993.047C1394.77 965.226 1225.12 125.088 950.232 148.782C675.336 172.478 690.039 898.032 605.527 1242.61C521.016 1587.18 74.3222 1947.94 76.0824 1944.67" stroke="#A1A6FF" stroke-width="0.552088" stroke-miterlimit="10"/>
<path d="M1400.77 903.911C1396.46 879.495 1216.66 160.746 949.836 179.905C683.009 199.05 682.832 813.646 591.043 1124.86C499.253 1436.07 57.9344 1819.19 60.2975 1815.13" stroke="#989DFF" stroke-width="0.552088" stroke-miterlimit="10"/>
<path d="M1407.71 876.633C1403.65 853.663 1208.76 196.984 949.848 211.073C690.933 225.162 680.009 778.985 582.826 1079.98C485.642 1380.97 51.2523 1807.77 54.211 1802.7" stroke="#8F94FF" stroke-width="0.552088" stroke-miterlimit="10"/>
<path d="M1414.65 849.371C1410.85 827.833 1200.87 233.188 949.86 242.211C698.85 251.233 677.186 744.333 574.609 1035.1C472.031 1325.86 44.5674 1796.32 48.1106 1790.23" stroke="#868BFF" stroke-width="0.552088" stroke-miterlimit="10"/>
<path d="M1421.59 822.157C1418.04 802.065 1192.98 269.404 949.867 273.378C706.751 277.353 674.369 709.764 566.389 990.288C458.409 1270.81 37.8768 1784.89 42.0153 1777.8" stroke="#7D81FF" stroke-width="0.552088" stroke-miterlimit="10"/>
<path d="M1428.53 794.969C1425.24 776.322 1185.1 305.605 949.885 304.534C714.678 303.463 671.553 675.215 558.183 945.514C444.812 1215.81 31.2063 1773.46 35.93 1765.36" stroke="#7478FF" stroke-width="0.552088" stroke-miterlimit="10"/>
<path d="M1435.48 767.821C1432.43 750.618 1177.22 341.801 949.904 335.689C722.593 329.577 668.739 640.713 549.98 900.79C431.22 1160.87 24.5256 1762.03 29.8442 1752.93" stroke="#6B6FFF" stroke-width="0.552088" stroke-miterlimit="10"/>
<path d="M1442.43 740.705C1439.65 724.945 1169.35 377.982 949.935 366.833C730.504 355.672 665.946 606.25 541.789 856.109C417.633 1105.97 17.8542 1750.6 23.7662 1740.48" stroke="#6266FF" stroke-width="0.552088" stroke-miterlimit="10"/>
<path d="M1449.38 713.602C1446.85 699.284 1161.49 414.138 949.942 397.931C738.399 381.724 663.122 571.812 533.579 811.457C404.037 1051.1 11.16 1739.16 17.6654 1728.03" stroke="#5A5CFF" stroke-width="0.552088" stroke-miterlimit="10"/>
<path d="M1456.32 686.548C1454.04 673.657 1153.62 450.27 949.961 429.037C746.301 407.804 660.307 537.428 525.38 766.866C390.452 996.305 4.47979 1727.73 11.5601 1715.6" stroke="#5153FF" stroke-width="0.552088" stroke-miterlimit="10"/>
<path d="M1463.27 659.494C1461.24 648.042 1145.76 486.34 949.974 460.085C754.193 433.831 657.494 503.049 517.172 722.293C376.85 941.536 -2.22683 1716.29 5.44656 1703.15" stroke="#484AFF" stroke-width="0.552088" stroke-miterlimit="10"/>
<path d="M1470.21 632.393C1468.44 622.378 1137.88 522.298 949.971 491.025C762.061 459.752 654.651 468.636 508.941 677.693C363.23 886.749 -8.97144 1704.86 -0.703716 1690.72" stroke="#3F41FF" stroke-width="0.552088" stroke-miterlimit="10"/>
<path d="M1477.16 605.132C1475.64 596.553 1130 558.037 949.939 521.747C769.878 485.442 651.764 434.035 500.652 632.955C349.54 831.875 -15.7863 1693.41 -6.93379 1678.26" stroke="#3637FF" stroke-width="0.552088" stroke-miterlimit="10"/>
<path d="M1484.09 577.716C1482.82 570.569 1122.09 593.59 949.875 552.264C777.665 510.938 648.842 399.242 492.323 588.075C335.804 776.908 -22.6732 1681.97 -13.227 1665.81" stroke="#2D2EFF" stroke-width="0.552088" stroke-miterlimit="10"/>
</g>
</svg>
