<svg width="1205" height="661" viewBox="0 0 1205 661" fill="none" xmlns="http://www.w3.org/2000/svg">
<g opacity="0.1">
<path d="M633.714 1258.26C251.522 1364.57 163.121 718.284 127.534 328.607C99.0674 16.875 323.858 -304.786 629.624 -389.849C874.228 -457.895 1090.98 -310.875 1113.75 -61.4889C1131.97 138.026 988.108 343.888 792.42 398.314C635.877 441.859 497.154 347.768 482.58 188.164C470.915 60.4791 731.791 -83.9811 766.515 35.0132" stroke="#2E3192" stroke-width="0.695969" stroke-miterlimit="10"/>
<path d="M635.55 1244.53C264.386 1347.34 169.453 724.763 128.562 343.062C97.2329 39.79 308.479 -274.225 599.807 -363.058C832.867 -434.241 1033.22 -298.12 1067.95 -69.2627C1094.28 104.26 984.634 313.092 806.778 384.97C757.566 404.864 709.429 408.565 663.007 399.708C574.666 382.839 501.235 289.072 492.197 190.058C481.092 68.4353 728.299 -71.622 766.569 43.7122" stroke="#2C3B97" stroke-width="0.695969" stroke-miterlimit="10"/>
<path d="M637.366 1230.8C277.242 1330.09 174.379 731.681 129.557 357.526C94.2768 63.0614 293.062 -243.633 569.946 -336.269C791.464 -410.611 974.236 -284.067 1022.11 -77.0547C1056.52 71.7933 980.261 282.533 821.11 371.609C776.97 396.311 733.008 405.325 686.32 402.675C594.165 397.446 510.366 286.01 501.787 191.937C491.238 76.3981 724.801 -59.2781 766.584 52.4074" stroke="#2A459C" stroke-width="0.695969" stroke-miterlimit="10"/>
<path d="M639.207 1217.08C290.122 1312.85 180.089 738.386 130.572 371.988C91.9458 86.1552 277.656 -213.056 540.117 -309.496C750.091 -386.999 914.171 -268.147 976.28 -84.8652C1019 41.1952 975.006 252.763 835.461 358.232C796.105 387.976 756.245 402.392 709.641 405.639C612.778 412.384 519.522 282.942 511.382 193.81C501.392 84.3347 721.285 -46.9387 766.615 61.0867" stroke="#274EA2" stroke-width="0.695969" stroke-miterlimit="10"/>
<path d="M641.007 1203.34C302.963 1295.6 185.803 745.114 131.575 386.463C89.6644 109.272 262.239 -182.433 510.245 -282.674C708.658 -363.325 892.396 -270.365 930.414 -92.6389C1005.69 -5.94988 969.129 224.338 849.787 344.875C814.98 380.035 779.155 399.898 732.954 408.615C630.691 427.911 528.653 279.889 520.972 195.702C511.531 92.3044 717.757 -34.572 766.633 69.7894" stroke="#2558A7" stroke-width="0.695969" stroke-miterlimit="10"/>
<path d="M642.828 1189.62C315.82 1278.35 191.596 751.857 132.573 400.946C87.4057 132.399 246.822 -151.839 480.385 -255.853C667.251 -339.664 842.726 -260.196 884.558 -100.4C974.103 -41.9481 963.299 197.458 864.127 331.544C833.808 372.533 801.914 397.869 756.258 411.619C648.149 444.205 537.78 276.85 530.547 197.616C521.662 100.305 714.218 -22.1884 766.632 78.5008" stroke="#2362AC" stroke-width="0.695969" stroke-miterlimit="10"/>
<path d="M644.651 1175.88C328.687 1261.09 197.43 758.579 133.57 415.409C85.1983 155.494 231.392 -121.253 450.524 -229.073C625.831 -316.035 793.058 -250.092 838.692 -108.219C942.509 -77.9857 958.113 171.729 878.465 318.156C852.81 365.318 824.627 396.164 779.582 414.568C665.484 461.217 546.922 273.776 540.147 199.485C531.822 108.24 710.714 -9.86006 766.653 87.1896" stroke="#216CB1" stroke-width="0.695969" stroke-miterlimit="10"/>
<path d="M646.436 1162.14C341.519 1243.84 203.318 765.313 134.563 429.901C83.0496 178.631 216.111 -90.1821 420.63 -202.222C584.502 -291.988 743.339 -239.92 792.794 -115.976C910.881 -113.967 953.908 146.632 892.777 304.809C872.093 358.342 847.341 394.811 802.872 417.568C682.856 479.003 556.041 270.737 549.714 201.404C541.938 116.239 707.157 2.53918 766.642 95.9224" stroke="#1F76B6" stroke-width="0.695969" stroke-miterlimit="10"/>
<path d="M648.201 1148.43C354.347 1226.61 209.262 772.086 135.531 444.437C80.9283 201.802 200.698 -59.4489 390.717 -175.332C543.057 -268.223 693.597 -229.707 746.861 -123.685C879.217 -149.901 950.648 121.559 907.056 291.506C891.69 351.403 870.127 393.706 826.143 420.6C700.486 497.444 565.131 267.742 559.264 203.357C552.036 124.275 703.58 14.9752 766.61 104.691" stroke="#B580D1" stroke-width="0.695969" stroke-miterlimit="10"/>
<path d="M649.963 1134.69C367.163 1209.36 215.271 778.816 136.499 458.957C78.8721 224.935 185.287 -28.7498 360.799 -148.432C501.616 -244.459 643.843 -219.464 700.922 -131.407C847.547 -185.849 948.123 96.1294 921.33 278.186C911.592 344.343 893.041 392.722 849.41 423.615C718.492 516.336 574.239 264.731 568.811 205.294C562.153 132.295 700.01 27.3868 766.574 113.445" stroke="#B580D1" stroke-width="0.695969" stroke-miterlimit="10"/>
<path d="M651.725 1120.97C379.993 1192.11 221.358 785.526 137.482 473.481C76.8922 248.074 169.881 1.9473 330.884 -121.533C460.178 -220.695 594.094 -209.243 654.982 -139.11C815.875 -221.778 946.106 70.219 935.602 264.883C931.699 337.142 916.066 391.816 872.664 426.656C736.925 535.591 583.315 261.748 578.335 207.271C572.225 140.356 696.405 39.8504 766.502 122.251" stroke="#B580D1" stroke-width="0.695969" stroke-miterlimit="10"/>
<path d="M653.459 1107.24C392.797 1174.85 227.502 792.233 138.429 488.018C74.9324 271.194 154.451 32.6482 300.945 -94.629C418.716 -196.948 544.318 -199.017 609.026 -146.82C784.187 -257.714 944.354 43.8297 949.866 251.582C951.934 329.779 939.231 390.942 895.922 429.689C755.788 555.056 592.409 258.745 587.876 209.228C582.315 148.397 692.816 52.2948 766.449 131.015" stroke="#B580D1" stroke-width="0.695969" stroke-miterlimit="10"/>
<path d="M655.197 1093.5C405.593 1157.6 233.759 798.888 139.38 502.548C73.0617 294.284 139.028 63.3228 270.997 -67.7186C377.238 -173.205 494.533 -188.784 563.04 -154.522C752.459 -293.653 942.713 17.0322 964.091 238.276C972.21 322.278 962.46 390.059 919.13 432.726C775.002 574.636 601.449 255.769 597.377 211.202C592.376 156.444 689.185 64.7569 766.363 139.807" stroke="#B580D1" stroke-width="0.695969" stroke-miterlimit="10"/>
<path d="M656.937 1079.77C418.404 1140.35 240.087 805.502 140.347 517.073C71.2633 317.335 123.604 93.9711 241.073 -40.802C335.787 -149.476 444.769 -178.523 517.087 -162.207C720.772 -329.563 941.15 -10.0742 978.346 224.986C992.544 314.674 985.816 389.159 942.38 435.769C794.618 594.277 610.536 252.778 606.912 213.171C602.469 164.509 685.602 77.2034 766.311 148.595" stroke="#B580D1" stroke-width="0.695969" stroke-miterlimit="10"/>
<path d="M658.646 1066.04C431.183 1123.09 246.512 812.073 141.271 531.611C69.4979 340.365 108.129 124.622 211.11 -13.8938C294.288 -125.767 394.969 -168.292 471.106 -169.911C689.057 -365.492 939.557 -37.4592 992.574 211.677C1012.84 306.964 1009.24 388.204 965.59 438.803C814.511 613.893 619.581 249.799 616.407 215.132C612.513 172.553 681.975 89.6629 766.208 157.385" stroke="#B580D1" stroke-width="0.695969" stroke-miterlimit="10"/>
<path d="M660.37 1052.3C443.966 1105.84 253.046 818.546 142.209 546.139C67.8339 363.34 92.6409 155.23 181.149 13.0141C252.762 -102.069 345.171 -158.062 425.108 -177.616C657.326 -401.422 937.926 -65.0492 1006.79 198.37C1033.13 299.191 1032.72 387.217 988.787 441.817C834.642 633.44 628.615 246.779 625.889 217.071C622.555 180.566 678.326 102.09 766.104 166.143" stroke="#B580D1" stroke-width="0.695969" stroke-miterlimit="10"/>
<path d="M662.065 1038.56C456.729 1088.57 259.68 824.947 143.126 560.651C66.2072 386.241 77.1204 185.83 151.168 39.9015C211.208 -78.4023 295.353 -147.853 379.11 -185.342C625.597 -437.376 936.261 -92.8116 1021 185.042C1053.43 291.344 1056.26 386.166 1012 444.823C854.998 652.911 637.647 243.76 635.381 219.002C632.605 188.592 674.689 114.508 766.011 174.892" stroke="#B580D1" stroke-width="0.695969" stroke-miterlimit="10"/>
<path d="M663.769 1024.8C469.503 1071.29 266.443 831.221 144.043 575.158C64.6521 409.073 61.5595 216.429 121.206 66.7877C169.641 -54.7249 252.251 -125.712 333.121 -193.058C624.562 -435.809 934.555 -120.671 1035.22 171.723C1073.7 283.473 1079.86 385.068 1035.2 447.848C875.53 672.343 646.684 240.772 644.868 220.953C642.653 196.616 671.057 126.936 765.903 183.65" stroke="#B580D1" stroke-width="0.695969" stroke-miterlimit="10"/>
<path d="M665.459 1011.05C482.246 1054.02 273.31 837.37 144.943 589.644C63.1478 431.812 45.9458 247.008 91.2057 93.6378C128.016 -31.0869 201.538 -119.502 287.101 -200.84C585.278 -484.313 932.793 -148.703 1049.44 158.348C1093.94 275.518 1103.49 383.888 1058.41 450.815C896.196 691.633 655.715 237.698 654.356 222.849C652.69 204.596 667.415 139.317 765.797 192.374" stroke="#B580D1" stroke-width="0.695969" stroke-miterlimit="10"/>
<path d="M667.125 997.283C494.977 1036.73 280.294 843.379 145.805 604.133C61.6882 454.477 30.0165 277.606 61.1656 120.491C86.1228 -7.41983 150.103 -112.517 241.037 -208.601C545.596 -530.419 930.96 -176.778 1063.61 144.996C1114.14 267.576 1127.12 382.699 1081.57 453.817C916.927 710.872 664.685 234.669 663.786 224.769C662.668 212.6 663.714 151.723 765.643 201.112" stroke="#B580D1" stroke-width="0.695969" stroke-miterlimit="10"/>
<path d="M668.812 983.51C507.73 1019.43 287.425 849.226 146.691 618.617C60.297 477.04 14.4711 308.239 31.1591 147.331C44.5419 16.2723 98.2708 -104.973 195.006 -216.374C506.062 -574.625 929.116 -204.922 1077.82 131.628C1134.36 259.585 1150.81 381.46 1104.77 456.792C937.794 730.015 673.719 231.613 673.259 226.663C672.711 220.578 660.067 164.093 765.533 209.824" stroke="#B580D1" stroke-width="0.695969" stroke-miterlimit="10"/>
<path d="M670.491 969.72C356.465 1037.53 -289.496 318.251 148.979 -224.167C587.454 -766.586 1297.19 170.441 1127.96 459.755C958.735 749.069 682.725 228.547 682.725 228.547C682.725 228.547 656.401 176.464 765.414 218.526" stroke="#B580D1" stroke-width="0.695969" stroke-miterlimit="10"/>
</g>
</svg>
