<svg width="1440" height="768" viewBox="0 0 1440 768" fill="none" xmlns="http://www.w3.org/2000/svg">
<g opacity="0.05">
<path d="M1612.7 767.126C1614.05 599.957 1564.56 432.846 1475.49 303.877C1450.15 267.187 1420.43 232.493 1382.95 216.399C1274.67 169.905 1159.04 271.545 1067.99 329.255C958.121 398.891 849.492 471.871 735.093 530.636C670.869 563.628 595.437 591.629 533.311 553.336C470.4 514.555 446.462 424.255 420.453 345.619C390.149 253.987 348.416 165.718 287.157 99.7335C225.897 33.7491 143.084 -7.90642 61.0763 2.83384C-3.14265 11.2467 -61.6586 50.1596 -115.095 93.5228C-255.497 207.466 -374.776 358.311 -462 532.232" stroke="#B580D1" stroke-width="0.552088" stroke-miterlimit="10"/>
<path d="M1616.21 759.899C1617.41 612.153 1573.89 467.552 1496.72 343.534C1489.56 332.016 1482.18 320.689 1474.48 309.672C1449.18 273.482 1419.72 239.23 1382.77 223.011C1275.92 176.048 1162.06 272.374 1071.14 328.014C990.534 377.344 910.497 429.43 827.618 476.578C798.865 493.001 769.864 508.818 740.493 523.738C676.782 556.098 602.244 583.723 540.581 547.217C478.146 510.249 453.429 423.443 426.702 347.886C395.553 259.847 353.341 175.006 292.197 111.567C270.908 89.48 247.086 70.228 221.64 54.9516C174.028 26.3505 120.729 11.6477 67.7673 18.3332C4.1502 26.3637 -53.9405 63.7007 -107.035 105.086C-214.527 188.813 -309.513 292.741 -387.822 412.459C-411.191 448.181 -433.071 485.3 -453.338 523.719" stroke="#B580D1" stroke-width="0.552088" stroke-miterlimit="10"/>
<path d="M1619.72 752.68C1620.88 609.858 1575.04 473.268 1495.68 348.809C1488.47 337.515 1481.14 326.333 1473.47 315.48C1448.2 279.798 1419 245.982 1382.58 229.631C1277.16 182.193 1165.08 273.212 1074.28 326.788C994.52 373.85 915.185 424.558 832.349 470.71C803.806 486.744 775.021 502.225 745.887 516.855C682.689 548.588 609.041 575.831 547.847 541.112C485.886 505.95 460.391 422.639 432.952 350.167C400.964 265.722 358.26 184.31 297.238 123.422C275.988 102.225 252.281 83.7441 227.006 69.0875C179.731 41.6336 126.924 27.4847 74.4644 33.8537C11.4491 41.5083 -46.2111 77.263 -98.9687 116.664C-205.82 196.355 -300.183 294.574 -378.717 408.787C-402.154 442.867 -424.176 478.358 -444.67 515.22" stroke="#B580D1" stroke-width="0.552088" stroke-miterlimit="10"/>
<path d="M1623.23 745.454C1624.34 607.558 1576.22 478.978 1494.64 354.077C1487.4 342.994 1480.11 331.964 1472.47 321.283C1447.24 286.102 1418.29 252.734 1382.4 236.251C1278.42 188.345 1168.13 274.056 1077.43 325.555C998.534 370.356 919.8 419.449 837.098 464.843C808.731 480.416 780.194 495.633 751.292 509.973C688.608 541.073 615.848 567.94 555.129 535.007C493.643 501.652 467.369 421.842 439.213 352.449C406.38 271.597 363.196 193.613 302.295 135.27C281.078 114.963 257.493 97.2541 232.389 83.2106C185.445 56.9039 133.141 43.3088 81.1725 49.3679C18.7589 56.6468 -38.4706 90.8191 -90.8914 128.235C-197.108 203.898 -290.841 296.401 -369.602 405.115C-393.105 437.553 -415.265 471.416 -435.985 506.729" stroke="#B580D1" stroke-width="0.552088" stroke-miterlimit="10"/>
<path d="M1626.73 738.234C1627.81 605.263 1577.42 484.68 1493.59 359.351C1486.32 348.485 1479.07 337.6 1471.46 327.091C1446.26 292.417 1417.56 259.484 1382.21 242.87C1279.66 194.496 1171.18 274.912 1080.57 324.328C1002.54 366.88 924.454 414.503 841.823 458.974C813.656 474.138 785.35 489.038 756.68 503.088C694.509 533.562 622.644 560.053 562.389 528.901C501.378 497.359 474.326 421.043 445.451 354.729C411.774 277.471 368.109 202.908 307.324 147.117C286.146 127.694 262.682 110.762 237.745 97.3322C191.137 72.1793 139.329 59.1381 87.8526 64.8741C26.0353 71.7706 -30.7637 104.367 -82.8422 139.799C-188.418 211.427 -281.528 298.219 -360.521 401.429C-384.095 432.225 -406.394 464.459 -427.34 498.216" stroke="#B580D1" stroke-width="0.552088" stroke-miterlimit="10"/>
<path d="M1630.24 731.009C1631.28 602.963 1578.65 490.372 1492.55 364.62C1485.25 353.966 1478.03 343.239 1470.45 332.894C1445.29 298.722 1416.85 266.231 1382.02 249.491C1280.9 200.648 1174.25 275.777 1083.71 323.103C1006.57 363.427 929.125 409.566 846.56 453.114C818.592 467.869 790.512 482.453 762.08 496.213C700.423 526.054 629.446 552.169 569.66 522.803C509.124 493.068 481.298 420.253 451.701 357.018C417.184 283.346 373.034 212.219 312.365 158.98C291.226 140.446 267.878 124.286 243.111 111.469C196.841 87.4636 145.524 74.9762 94.5495 80.4024C33.334 86.923 -23.0342 117.944 -74.776 151.391C-179.711 218.991 -272.197 300.067 -351.416 397.777C-375.057 426.932 -397.499 457.538 -418.672 489.739" stroke="#B580D1" stroke-width="0.552088" stroke-miterlimit="10"/>
<path d="M1633.75 723.782C1634.75 600.661 1579.91 496.041 1491.51 369.881C1484.19 359.437 1477.01 348.862 1469.45 338.689C1444.33 305.024 1416.13 272.968 1381.84 256.096C1282.15 206.786 1177.34 276.634 1086.86 321.856C1010.61 359.965 933.796 404.607 851.298 447.225C823.527 461.572 795.674 475.839 767.479 489.303C706.335 518.517 636.253 544.25 576.932 516.671C516.87 488.742 488.266 419.428 457.951 359.272C422.59 289.194 377.959 221.495 317.406 170.8C296.305 153.157 273.079 137.769 248.478 125.571C202.538 102.713 151.724 90.7792 101.241 95.8889C40.6274 102.034 -15.3158 131.472 -66.7153 162.935C-171.01 226.499 -262.872 301.866 -342.318 394.071C-366.03 421.584 -388.61 450.561 -410.004 481.206" stroke="#B580D1" stroke-width="0.552088" stroke-miterlimit="10"/>
<path d="M1637.26 716.563C1638.21 598.367 1581.19 501.711 1490.46 375.156C1483.12 364.917 1475.96 354.499 1468.44 344.498C1443.35 311.334 1415.41 279.72 1381.64 262.723C1283.39 212.938 1180.43 277.531 1090 320.637C1014.67 356.543 938.472 399.682 856.028 441.371C828.457 455.315 800.831 469.253 772.873 482.433C712.242 511.014 643.049 536.372 584.196 510.579C524.61 484.464 495.228 418.638 464.2 361.567C428 295.082 382.883 230.812 322.451 182.669C301.389 165.909 278.279 151.298 253.849 139.714C208.246 118.003 157.929 106.63 107.937 111.423C47.9254 117.185 -7.58711 145.048 -58.6553 174.526C-162.31 234.062 -253.548 303.712 -333.225 390.419C-357.004 416.291 -379.728 443.639 -401.348 472.728" stroke="#B580D1" stroke-width="0.552088" stroke-miterlimit="10"/>
<path d="M1640.77 709.336C1641.68 596.066 1582.51 507.355 1489.42 380.423C1482.06 370.388 1474.94 360.136 1467.43 350.299C1442.38 317.643 1414.7 286.471 1381.46 269.341C1284.65 219.088 1183.55 278.427 1093.14 319.403C1018.74 353.127 943.148 394.743 860.771 435.496C833.404 449.032 805.998 462.653 778.272 475.543C718.155 503.498 649.856 528.472 591.467 504.473C532.355 480.164 502.195 417.839 470.45 363.848C433.405 300.956 387.802 240.114 327.492 194.516C306.468 178.646 283.479 164.807 259.215 153.836C213.949 133.278 164.129 122.452 114.629 126.936C55.2184 132.322 0.136464 158.603 -50.5949 186.103C-153.609 241.604 -244.223 305.545 -324.127 386.746C-347.977 410.976 -370.839 436.689 -392.686 464.235" stroke="#B580D1" stroke-width="0.552088" stroke-miterlimit="10"/>
<path d="M1644.27 702.11C1645.15 593.765 1583.85 512.979 1488.38 385.691C1481 375.861 1473.9 365.766 1466.43 356.101C1441.41 323.946 1413.98 293.215 1381.28 275.954C1285.9 225.233 1186.69 279.337 1096.29 318.17C1022.83 349.732 947.83 389.818 865.508 429.628C838.34 442.768 811.16 456.06 783.672 468.659C724.068 495.981 656.659 520.58 598.739 498.368C540.102 475.866 509.163 417.042 476.7 366.129C438.81 306.83 392.727 249.417 332.533 206.37C311.548 191.391 288.675 178.323 264.582 167.965C219.647 148.555 170.324 138.289 121.326 142.45C62.5174 147.454 7.86064 172.158 -42.5285 197.674C-144.902 249.147 -234.893 307.371 -315.023 383.074C-338.939 405.662 -361.945 429.747 -384.012 455.737" stroke="#B580D1" stroke-width="0.552088" stroke-miterlimit="10"/>
<path d="M1647.78 694.891C1648.62 591.471 1585.22 518.597 1487.34 390.96C1479.95 381.327 1472.87 371.398 1465.42 361.897C1440.44 330.25 1413.26 299.955 1381.09 282.568C1287.14 231.379 1189.83 280.261 1099.43 316.932C1026.91 346.351 952.506 384.888 870.234 423.748C843.27 436.486 816.311 449.454 789.06 461.764C729.97 488.46 663.455 512.676 605.999 492.251C547.836 471.555 516.119 416.231 482.938 368.398C444.209 312.692 397.64 258.708 337.562 218.206C316.616 204.11 293.859 191.813 269.937 182.075C225.339 163.812 176.513 154.101 128.006 157.951C69.7939 162.579 15.5732 185.702 -34.4791 209.233C-136.212 256.67 -225.579 309.178 -305.941 379.382C-329.924 400.329 -353.073 422.785 -375.366 447.219" stroke="#B580D1" stroke-width="0.552088" stroke-miterlimit="10"/>
<path d="M1651.29 687.665C1652.09 589.169 1586.61 524.181 1486.29 396.227C1478.9 386.792 1471.83 377.034 1464.41 367.698C1439.47 336.552 1412.55 306.698 1380.9 289.18C1288.39 237.523 1192.99 281.209 1102.57 315.698C1031.02 342.994 957.193 379.962 874.976 417.879C848.217 430.221 821.479 442.86 794.465 454.88C735.889 480.943 670.262 504.79 613.281 486.145C555.593 467.262 523.103 415.426 489.199 370.685C449.625 318.566 402.576 268.016 342.62 230.06C321.712 216.854 299.076 205.329 275.32 196.21C231.059 179.095 182.729 169.937 134.714 173.471C77.1037 177.723 23.3082 199.263 -26.4018 220.816C-127.495 264.225 -216.238 311.017 -296.826 375.716C-320.88 395.02 -344.167 415.848 -366.682 438.727" stroke="#B580D1" stroke-width="0.552088" stroke-miterlimit="10"/>
<path d="M1654.8 680.446C1655.55 586.876 1588.03 529.746 1485.25 401.502C1477.85 392.265 1470.81 382.653 1463.4 373.508C1438.55 342.81 1411.83 313.457 1380.72 295.807C1289.64 243.675 1196.16 282.186 1105.72 314.479C1035.14 339.678 961.881 375.064 879.713 412.019C853.158 423.965 826.647 436.268 799.859 447.997C741.796 473.434 677.064 496.899 620.547 480.04C563.334 462.964 530.065 414.629 495.449 372.967C455.03 324.442 407.501 277.32 347.66 241.915C326.791 229.599 304.272 218.846 280.686 210.34C236.757 194.378 188.924 185.774 141.411 188.992C84.4024 192.862 31.0376 212.826 -18.3357 232.395C-118.788 271.769 -206.907 312.851 -287.722 372.051C-311.843 389.714 -335.273 408.913 -358.014 430.242" stroke="#B580D1" stroke-width="0.552088" stroke-miterlimit="10"/>
<path d="M1658.31 673.219C1659.02 584.574 1589.48 535.277 1484.21 406.77C1476.8 397.724 1469.77 388.289 1462.4 379.309C1437.58 349.113 1411.11 320.202 1380.53 302.42C1290.88 249.82 1199.34 283.181 1108.86 313.239C1039.27 336.362 966.562 370.145 884.45 406.143C858.104 417.695 831.808 429.668 805.258 441.107C747.708 465.911 683.865 489 627.817 473.928C571.079 458.658 537.031 413.825 501.698 375.241C460.44 330.309 412.425 286.616 352.7 253.756C331.864 242.323 309.472 232.348 286.047 224.456C242.454 209.641 195.117 201.591 148.096 204.492C91.6892 207.986 38.755 226.368 -10.2815 243.952C-110.094 279.298 -197.589 314.663 -278.635 368.358C-302.828 384.38 -326.396 401.95 -349.363 421.723" stroke="#B580D1" stroke-width="0.552088" stroke-miterlimit="10"/>
<path d="M1661.81 665.993C1662.49 582.273 1590.95 540.782 1483.16 412.037C1475.75 403.183 1468.74 393.919 1461.39 385.111C1436.61 355.415 1410.39 326.946 1380.34 309.039C1292.13 255.971 1202.54 284.202 1112 312.012C1043.41 333.084 971.255 365.246 889.182 400.275C863.04 411.431 836.965 423.074 810.652 434.223C753.616 458.4 690.667 481.107 635.083 467.822C578.819 454.365 543.994 413.026 507.942 377.522C465.84 336.183 417.339 295.918 357.736 265.61C336.938 255.067 314.662 245.863 291.408 238.584C248.152 224.917 201.312 217.42 154.782 220.011C98.9773 223.13 46.4681 239.929 -2.23166 255.535C-101.403 286.846 -188.274 316.502 -269.547 364.698C-293.806 379.078 -317.518 395.02 -340.706 413.237" stroke="#B580D1" stroke-width="0.552088" stroke-miterlimit="10"/>
<path d="M1665.32 658.773C1665.96 579.978 1592.46 546.261 1482.12 417.305C1474.71 408.642 1467.71 399.55 1460.39 390.913C1435.65 361.718 1409.68 333.691 1380.16 315.652C1293.38 262.115 1205.76 285.251 1115.15 310.773C1047.56 329.814 975.947 360.34 893.918 394.4C867.981 405.167 842.127 416.474 816.052 427.333C759.529 450.877 697.468 473.209 642.353 461.71C586.565 450.06 550.961 412.215 514.192 379.797C471.25 342.051 422.263 305.215 362.781 277.451C342.023 267.799 319.867 259.366 296.779 252.707C253.854 240.186 207.512 233.25 161.484 235.525C106.281 238.261 54.2024 253.485 5.83943 267.106C-92.6918 294.389 -178.939 318.329 -260.438 361.019C-284.769 373.751 -308.619 388.064 -332.033 404.732" stroke="#B580D1" stroke-width="0.552088" stroke-miterlimit="10"/>
<path d="M1668.83 651.547C1669.43 577.678 1593.99 551.7 1481.08 422.573C1473.66 414.095 1466.67 405.181 1459.37 396.715C1434.67 368.028 1408.92 340.508 1379.97 322.272C1294.53 268.471 1208.97 286.339 1118.29 309.547C1051.71 326.59 980.635 355.455 898.65 388.533C872.922 398.911 847.283 409.882 821.446 420.45C765.436 443.368 704.27 465.317 649.619 455.605C594.3 445.762 557.923 411.418 520.441 382.078C476.655 347.926 427.188 314.518 367.822 289.306C347.102 280.537 325.063 272.882 302.146 266.836C259.558 255.47 213.712 249.081 168.176 251.039C113.569 253.399 61.921 267.041 13.9004 278.678C-83.9904 301.925 -169.614 320.155 -251.345 357.347C-275.742 368.437 -299.736 381.122 -323.376 396.24" stroke="#B580D1" stroke-width="0.552088" stroke-miterlimit="10"/>
<path d="M1672.34 644.328C1672.9 575.384 1595.55 557.114 1480.04 427.848C1472.62 419.554 1465.63 410.825 1458.37 402.524C1433.71 374.338 1408.22 347.26 1379.79 328.898C1295.79 274.623 1212.21 287.46 1121.44 308.328C1055.88 323.4 985.344 350.583 903.397 382.679C877.88 392.674 852.456 403.302 826.85 413.581C771.354 435.866 711.077 457.438 656.895 449.52C602.051 441.49 564.901 410.64 526.696 384.38C482.065 353.82 432.118 323.841 372.868 301.174C352.187 293.295 330.263 286.412 307.517 280.979C265.266 270.76 219.917 264.931 174.872 266.573C120.867 268.551 69.6499 280.623 21.966 290.276C-75.2844 309.495 -160.289 322.008 -242.242 353.695C-266.71 363.143 -290.836 374.2 -314.703 387.762" stroke="#B580D1" stroke-width="0.552088" stroke-miterlimit="10"/>
<path d="M1675.85 637.102C1676.37 573.076 1597.13 562.487 1478.99 433.117C1471.58 425.007 1464.6 416.456 1457.36 408.326C1432.72 380.648 1407.49 354.005 1379.59 335.511C1297.02 280.768 1215.43 288.614 1124.58 307.088C1060.04 320.215 990.026 345.698 908.123 376.798C882.815 386.411 857.607 396.689 832.239 406.685C777.256 428.343 717.874 449.54 664.155 443.402C609.786 437.178 571.857 409.829 532.935 386.648C487.465 359.675 437.032 333.125 377.898 313.009C357.255 306.02 335.453 299.908 312.873 295.089C270.952 286.017 226.101 280.742 181.553 282.067C128.149 283.669 77.3626 294.159 30.0155 301.827C-66.5944 317.011 -150.976 323.808 -233.154 350.003C-257.689 357.809 -281.959 367.238 -306.052 379.244" stroke="#B580D1" stroke-width="0.552088" stroke-miterlimit="10"/>
<path d="M1679.36 629.876C1679.84 570.775 1598.74 567.815 1477.95 438.378C1470.55 430.446 1463.56 422.086 1456.36 414.121C1431.76 386.944 1406.78 360.743 1379.41 342.124C1298.28 286.906 1218.68 289.801 1127.73 305.855C1064.22 317.063 994.735 340.832 912.866 370.93C887.768 380.16 862.775 390.096 837.644 399.794C783.175 420.82 724.681 441.641 671.432 437.29C617.537 432.872 578.831 409.018 539.191 388.922C492.876 365.543 441.962 342.421 382.95 324.857C362.346 318.751 340.66 313.417 318.25 309.218C276.667 301.293 232.312 296.572 188.261 297.587C135.459 298.814 85.0979 307.721 38.0931 313.404C-57.8764 324.56 -141.634 325.641 -224.044 346.33C-248.645 352.495 -273.058 360.295 -297.378 370.745" stroke="#B580D1" stroke-width="0.552088" stroke-miterlimit="10"/>
<path d="M1682.86 622.656C1683.3 568.48 1600.38 573.109 1476.91 443.652C1469.51 435.898 1462.53 427.723 1455.35 419.93C1430.79 393.26 1406.06 367.494 1379.23 348.743C1299.52 293.051 1221.93 291.04 1130.87 304.622C1068.4 313.938 999.434 335.966 917.598 365.055C892.71 373.903 867.937 383.496 843.038 392.904C789.083 413.304 731.478 433.742 678.704 431.178C625.284 428.573 585.798 408.214 545.44 391.197C498.281 371.411 446.882 351.717 387.99 336.698C367.425 331.483 345.86 326.92 323.617 323.333C282.37 316.562 238.512 312.395 194.953 313.088C142.753 313.931 92.8218 321.263 46.1538 324.968C-49.1753 332.089 -132.309 327.461 -214.945 342.645C-239.618 347.168 -264.17 353.339 -288.71 362.233" stroke="#B580D1" stroke-width="0.552088" stroke-miterlimit="10"/>
<path d="M1686.37 615.43C1686.77 566.179 1602.04 578.356 1475.86 448.919C1468.47 441.337 1461.49 433.353 1454.34 425.731C1429.81 399.57 1405.37 374.179 1379.03 355.363C1300.86 299.011 1225.17 292.325 1134.01 303.395C1072.56 310.852 1004.13 331.113 922.329 359.193C897.651 367.665 873.094 376.909 848.432 386.027C794.99 405.794 738.279 425.857 685.969 425.079C633.023 424.281 592.76 407.422 551.69 393.484C503.691 377.291 451.806 361.026 393.03 348.558C372.504 344.233 351.055 340.442 328.983 337.469C288.067 331.845 244.712 328.232 201.644 328.614C150.04 329.082 100.54 334.831 54.2082 336.552C-40.4805 339.644 -122.99 329.3 -205.853 338.985C-230.592 341.866 -255.287 346.402 -280.054 353.754" stroke="#B580D1" stroke-width="0.552088" stroke-miterlimit="10"/>
<path d="M1689.88 608.211C1690.24 563.885 1603.74 583.565 1474.82 454.194C1467.44 446.79 1460.46 438.997 1453.33 431.54C1428.84 405.886 1404.66 380.931 1378.85 361.983C1302.11 305.156 1228.42 293.658 1137.16 302.169C1076.75 307.8 1008.85 326.274 927.071 353.326C902.603 361.422 878.261 370.316 853.831 379.145C800.903 398.284 745.081 417.965 693.24 418.974C640.769 419.983 599.727 406.625 557.94 395.766C509.096 383.166 456.731 370.329 398.071 360.407C377.578 356.965 356.256 353.945 334.349 351.592C293.771 347.115 250.907 344.056 208.341 344.128C157.339 344.221 108.269 348.387 62.2745 348.124C-31.7738 347.181 -113.66 331.127 -196.754 335.307C-221.565 336.546 -246.398 339.454 -271.386 345.249" stroke="#B580D1" stroke-width="0.552088" stroke-miterlimit="10"/>
<path d="M1693.39 600.985C1693.71 561.584 1605.45 588.715 1473.78 459.456C1466.41 452.223 1459.42 444.621 1452.33 437.336C1427.87 412.19 1403.94 387.67 1378.66 368.596C1303.36 311.301 1231.66 295.036 1140.3 300.93C1080.92 304.761 1013.55 321.422 931.803 347.451C907.544 355.172 883.418 363.71 859.225 372.255C806.81 390.762 751.883 410.067 700.505 412.862C648.51 415.684 606.694 405.814 564.183 398.041C514.495 389.034 461.65 379.626 403.112 372.255C382.657 369.703 361.451 367.455 339.715 365.721C299.468 362.391 257.106 359.893 215.032 359.642C164.632 359.352 115.992 361.943 70.3347 359.695C-23.0731 354.724 -104.335 332.953 -187.656 331.634C-212.533 331.232 -237.51 332.511 -262.724 336.751" stroke="#B580D1" stroke-width="0.552088" stroke-miterlimit="10"/>
<path d="M1696.9 593.759C1697.18 559.283 1607.2 593.818 1472.73 464.724C1465.37 457.656 1458.37 450.272 1451.32 443.138C1426.85 418.552 1403.22 394.415 1378.48 375.215C1304.6 317.453 1234.9 296.473 1143.44 299.704C1085.08 301.761 1018.25 316.602 936.539 341.584C912.496 348.935 888.579 357.117 864.624 365.372C812.723 383.252 758.684 402.175 707.776 406.757C656.255 411.385 613.661 405.016 570.433 400.322C519.906 394.903 466.574 388.929 408.152 384.103C387.736 382.442 366.646 380.965 345.081 379.844C305.171 377.668 263.306 375.716 221.723 375.156C171.924 374.49 123.711 375.499 78.3951 371.273C-14.3723 362.266 -95.0104 334.786 -178.558 327.962C-203.507 325.918 -228.621 325.569 -254.062 328.252" stroke="#B580D1" stroke-width="0.552088" stroke-miterlimit="10"/>
<path d="M1700.4 586.539C1700.64 556.988 1608.97 598.874 1471.69 469.998C1464.34 463.101 1457.34 455.915 1450.31 448.939C1425.88 424.861 1402.51 401.165 1378.29 381.828C1305.85 323.597 1238.13 297.963 1146.59 298.464C1089.25 298.78 1022.96 311.769 941.276 335.708C917.442 342.691 893.741 350.517 870.024 358.475C818.635 375.722 765.491 394.276 715.047 400.638C664.001 407.073 620.629 404.205 576.682 402.589C525.311 400.763 471.498 398.218 413.192 395.937C392.815 395.159 371.847 394.46 350.448 393.952C310.874 392.924 269.5 391.533 228.414 390.649C179.217 389.608 131.434 389.034 86.4555 382.823C-5.67149 369.789 -85.6857 336.592 -169.465 324.269C-194.48 320.584 -219.738 318.606 -245.399 319.74" stroke="#B580D1" stroke-width="0.552088" stroke-miterlimit="10"/>
<path d="M1703.91 579.312C1704.11 554.687 1610.76 603.872 1470.65 475.265C1463.31 468.534 1456.3 461.545 1449.31 454.741C1424.91 431.164 1401.79 407.91 1378.11 388.447C1307.1 329.748 1241.35 299.512 1149.73 297.237C1093.39 295.839 1027.67 306.962 946.013 329.84C922.389 336.46 898.904 343.923 875.418 351.591C824.543 368.212 772.288 386.383 722.313 394.539C671.741 402.78 627.591 403.413 582.932 404.877C530.721 406.644 476.423 407.527 418.233 407.798C397.894 407.91 377.042 407.982 355.814 408.088C316.572 408.207 275.701 407.369 235.111 406.176C186.516 404.752 139.158 402.602 94.5217 394.407C3.03507 377.337 -76.3552 338.424 -160.361 320.603C-185.442 315.276 -210.844 311.669 -236.731 311.248" stroke="#B580D1" stroke-width="0.552088" stroke-miterlimit="10"/>
<path d="M1707.42 572.093C1707.58 552.393 1612.58 608.817 1469.6 480.541C1462.28 473.974 1455.26 467.183 1448.3 460.55C1423.94 437.481 1401.07 414.662 1377.92 395.067C1308.35 335.893 1244.54 301.121 1152.88 296.011C1097.53 292.926 1032.38 302.163 950.751 323.979C927.342 330.236 904.066 337.337 880.818 344.715C830.456 360.703 779.095 378.498 729.584 388.441C679.487 398.495 634.559 402.616 589.182 407.165C536.127 412.526 481.343 416.838 423.274 419.653C402.974 420.655 382.243 421.499 361.175 422.218C322.27 423.483 281.895 423.2 241.797 421.69C193.799 419.89 146.877 416.158 102.577 405.985C11.731 384.887 -67.0355 340.258 -151.268 316.931C-176.421 309.962 -201.96 304.727 -228.074 302.75" stroke="#B580D1" stroke-width="0.552088" stroke-miterlimit="10"/>
<path d="M1710.93 564.867C1711.05 550.092 1614.43 613.696 1468.56 485.802C1461.25 479.393 1454.23 472.813 1447.29 466.345C1422.97 443.777 1400.35 421.4 1377.74 401.68C1309.6 342.038 1247.72 302.782 1156.02 294.772C1101.66 290.025 1037.1 297.363 955.487 318.098C932.288 323.993 909.233 330.724 886.216 337.818C836.368 353.18 785.896 370.593 736.86 382.322C687.238 394.183 641.531 401.805 595.437 409.433C541.536 418.387 486.272 426.127 428.325 431.494C408.063 433.38 387.448 435.002 366.552 436.34C327.983 438.76 288.1 439.03 248.499 437.204C201.102 435.021 154.611 429.714 110.642 417.556C20.4365 392.43 -57.706 342.084 -142.17 313.259C-167.389 304.648 -193.073 297.778 -219.407 294.251" stroke="#B580D1" stroke-width="0.552088" stroke-miterlimit="10"/>
<path d="M1714.44 557.641C1714.51 547.791 1616.29 618.515 1467.52 491.07C1460.23 484.819 1453.19 478.444 1446.29 472.147C1422 450.086 1399.64 428.151 1377.55 408.292C1310.84 348.183 1250.88 304.503 1159.16 293.539C1105.77 287.156 1041.8 292.582 960.224 312.23C937.24 317.768 914.395 324.131 891.616 330.935C842.281 345.664 792.704 362.701 744.131 376.217C694.984 389.884 648.498 401.007 601.687 411.714C546.947 424.261 491.197 435.43 433.366 443.342C413.143 446.117 392.649 448.511 371.918 450.462C333.681 454.029 294.3 454.853 255.196 452.717C208.401 450.159 162.335 443.269 118.709 429.127C29.1432 399.965 -48.3756 343.91 -133.066 309.58C-158.357 299.327 -184.178 290.829 -210.739 285.752" stroke="#B580D1" stroke-width="0.552088" stroke-miterlimit="10"/>
<path d="M1717.94 550.421C1717.98 545.496 1618.19 623.275 1466.47 496.344C1459.19 490.252 1452.16 484.087 1445.27 477.956C1421.02 456.396 1398.91 434.902 1377.35 414.918C1312.09 354.34 1253.99 306.296 1162.3 292.312C1109.85 284.314 1046.52 287.934 964.95 306.362C942.182 311.577 919.546 317.537 897.005 324.051C848.183 338.154 799.495 354.808 751.391 370.111C702.719 385.592 655.46 400.209 607.926 413.995C552.341 430.135 496.111 444.733 438.396 455.196C418.211 458.862 397.834 462.026 377.274 464.591C339.373 469.305 300.49 470.683 261.877 468.231C215.683 465.297 170.048 456.831 126.758 440.704C37.8336 407.514 -39.0613 345.743 -123.978 305.914C-149.335 294.02 -175.3 283.892 -202.082 277.26" stroke="#B580D1" stroke-width="0.552088" stroke-miterlimit="10"/>
<path d="M1721.46 543.195C1721.46 543.195 1620.11 627.97 1465.44 501.612C1310.76 375.254 1257.52 238.921 969.693 300.494C770.797 343.047 583.165 447.416 382.652 478.714C300.153 491.59 213.69 485.525 134.83 452.276C46.5456 415.051 -29.7253 347.57 -114.874 302.235C-140.303 288.699 -166.4 276.944 -193.414 268.755" stroke="#B580D1" stroke-width="0.552088" stroke-miterlimit="10"/>
</g>
</svg>
