<svg width="373" height="375" viewBox="0 0 373 375" fill="none" xmlns="http://www.w3.org/2000/svg">
<path d="M46.5541 0H45.7363V110.826H46.5541V0Z" fill="#C7C7C7"/>
<path d="M84.628 147.927L81.537 154.73H10.7464L7.66357 147.927L37.7968 127.067H54.4948L84.628 147.927Z" fill="#EBEBEB"/>
<path d="M56.5879 106.967L54.4945 127.067H37.7965L35.7031 106.967H56.5879Z" fill="#DBDBDB"/>
<path d="M84.6278 147.927L81.5287 154.73H10.7463L7.65527 147.927H84.6278Z" fill="#DBDBDB"/>
<path d="M129.185 0H128.368V88.8787H129.185V0Z" fill="#C7C7C7"/>
<path d="M167.259 125.971L164.168 132.782H93.3773L90.2944 125.971L120.428 105.11H137.126L167.259 125.971Z" fill="#EBEBEB"/>
<path d="M139.219 85.0189L137.126 105.11H120.428L118.334 85.0189H139.219Z" fill="#DBDBDB"/>
<path d="M167.259 125.979L164.16 132.782H93.3776L90.2866 125.979H167.259Z" fill="#DBDBDB"/>
<path d="M21.7282 182.631L13.6573 195.641L17.6641 198.094C18.2257 198.459 18.6755 198.973 18.9641 199.577C19.2527 200.182 19.3688 200.854 19.2996 201.521C19.234 202.263 19.2094 203.008 19.226 203.753C19.2489 204.431 19.0838 205.102 18.749 205.693C18.4142 206.283 17.9227 206.769 17.3289 207.097L13.2402 209.313L20.5016 222.839L24.5903 220.623C25.172 220.311 25.8283 220.165 26.4875 220.201C27.1466 220.237 27.7831 220.453 28.3273 220.827C28.9951 221.293 29.6886 221.722 30.4043 222.111C30.9857 222.431 31.4665 222.906 31.7929 223.484C32.1193 224.062 32.2784 224.719 32.2524 225.382L32.1052 230.067L47.413 230.542L47.552 225.84C47.5736 225.175 47.7791 224.53 48.1459 223.976C48.5126 223.421 49.0261 222.979 49.6291 222.7C49.9889 222.528 50.3405 222.348 50.6921 222.16C51.0437 221.972 51.3872 221.776 51.7224 221.571C52.2868 221.224 52.9365 221.04 53.5991 221.04C54.2618 221.04 54.9114 221.224 55.4758 221.571L59.4908 224.024L67.5536 211.014L63.5386 208.52C62.9763 208.156 62.526 207.643 62.2373 207.038C61.9487 206.433 61.833 205.76 61.9031 205.094C61.9686 204.355 61.9932 203.612 61.9767 202.87C61.9546 202.191 62.1209 201.519 62.4572 200.929C62.7935 200.338 63.2867 199.853 63.882 199.525L67.9707 197.309L60.7338 183.817L56.5961 186.033C55.9958 186.347 55.3201 186.488 54.6444 186.44C53.9686 186.393 53.3194 186.158 52.7691 185.763C52.1558 185.338 51.518 184.945 50.872 184.594C50.2764 184.283 49.7793 183.812 49.4369 183.234C49.0945 182.656 48.9203 181.994 48.934 181.323L49.1221 176.629L33.8224 176.146L33.6752 180.848C33.6476 181.52 33.4342 182.17 33.0589 182.728C32.6835 183.285 32.1609 183.727 31.5491 184.005C31.2057 184.16 30.8704 184.332 30.5351 184.512C30.1999 184.692 29.8728 184.88 29.5539 185.076C28.9795 185.429 28.3186 185.616 27.6445 185.616C26.9704 185.616 26.3094 185.429 25.7351 185.076L21.7282 182.631ZM33.2909 193.163C35.4203 191.636 37.9748 190.813 40.5957 190.812C43.2165 190.81 45.7719 191.629 47.9032 193.155C50.0345 194.68 51.6345 196.834 52.4786 199.316C53.3227 201.797 53.3685 204.48 52.6095 206.988C51.8505 209.497 50.3248 211.705 48.2468 213.302C46.1688 214.899 43.6427 215.805 41.0234 215.892C38.404 215.98 35.823 215.245 33.6427 213.791C31.4623 212.337 29.7923 210.236 28.867 207.784C27.8918 205.2 27.7968 202.366 28.5967 199.723C29.3966 197.079 31.0467 194.773 33.2909 193.163Z" fill="#EBEBEB"/>
<path d="M154.544 260.74C154.223 260.553 153.957 260.285 153.771 259.964C153.585 259.643 153.485 259.28 153.48 258.909C153.48 258.541 153.48 258.181 153.48 257.813C153.441 257.444 153.463 257.071 153.546 256.709C153.636 256.347 153.823 256.017 154.086 255.752C154.363 255.509 154.671 255.303 155.001 255.139L156.907 254.027V254.068L152.36 246.283H152.466L149.964 247.755C149.504 247.985 148.978 248.048 148.476 247.935C148.003 247.787 147.554 247.573 147.143 247.297L146.522 246.945C146.292 246.826 146.085 246.668 145.908 246.479C145.546 246.102 145.326 245.611 145.287 245.089V242.186L145.475 242.374L136.48 242.456L136.758 242.186V245.097C136.732 245.515 136.6 245.919 136.374 246.271C136.147 246.623 135.835 246.912 135.466 247.109L134.853 247.477L134.239 247.837C134.002 247.985 133.743 248.096 133.471 248.164C132.92 248.285 132.344 248.219 131.835 247.976L129.3 246.528L129.791 246.397L125.318 254.223L125.171 253.675L127.706 255.131C128.062 255.376 128.352 255.706 128.548 256.092C128.743 256.477 128.839 256.906 128.826 257.339V258.058V258.77C128.831 259.046 128.792 259.322 128.712 259.587C128.541 260.139 128.186 260.616 127.706 260.937L125.171 262.392L125.31 261.877L129.775 269.703L129.317 269.58L131.86 268.149C132.37 267.91 132.946 267.849 133.495 267.977C133.758 268.046 134.009 268.153 134.239 268.296L134.861 268.664L135.474 269.024C135.712 269.155 135.927 269.323 136.112 269.523C136.48 269.925 136.7 270.442 136.733 270.986V273.906L136.513 273.685L145.508 273.775L145.377 273.906V271.003C145.416 270.494 145.629 270.014 145.982 269.645C146.353 269.32 146.765 269.045 147.208 268.828C147.617 268.56 148.06 268.348 148.525 268.198C149.013 268.081 149.526 268.142 149.972 268.37L152.483 269.825H152.426L156.956 262.032L154.544 260.74ZM154.544 260.74L156.939 262.114L152.466 269.932V269.972L149.948 268.541C149.521 268.334 149.035 268.282 148.574 268.394C148.102 268.537 147.655 268.752 147.249 269.032C146.823 269.248 146.429 269.523 146.08 269.85C145.763 270.193 145.575 270.635 145.549 271.101V273.996V274.127H145.418L136.423 274.216H136.21V273.938V271.052C136.176 270.626 135.997 270.225 135.703 269.915C135.554 269.762 135.383 269.633 135.196 269.531L134.558 269.171L133.92 268.811C133.741 268.703 133.545 268.626 133.34 268.582C132.929 268.49 132.499 268.542 132.121 268.73L129.668 270.193L129.382 270.365L129.21 270.071L124.672 262.286L124.484 261.959L124.811 261.771L127.264 260.323C127.59 260.099 127.83 259.77 127.943 259.391C127.999 259.2 128.026 259.001 128.025 258.802V258.066V257.33C128.026 257.131 127.999 256.933 127.943 256.742C127.828 256.365 127.585 256.041 127.256 255.826L124.803 254.37L124.451 254.174L124.656 253.831L129.186 246.046L129.374 245.727L129.685 245.907L132.138 247.354C132.503 247.534 132.918 247.583 133.315 247.493C133.516 247.451 133.707 247.374 133.88 247.264L134.517 246.904L135.163 246.545C135.345 246.448 135.511 246.324 135.654 246.177C135.943 245.875 136.117 245.481 136.145 245.065V242.194V241.908H136.415L145.41 241.99H145.614V242.178V245.065C145.644 245.515 145.826 245.941 146.129 246.275C146.473 246.6 146.861 246.876 147.282 247.092C147.667 247.367 148.092 247.583 148.541 247.73C148.989 247.836 149.459 247.787 149.874 247.591L152.401 246.177L152.466 246.136V246.201L156.939 254.027L155.026 255.123C154.697 255.282 154.392 255.485 154.118 255.728C153.856 255.983 153.67 256.306 153.579 256.66C153.492 257.018 153.468 257.389 153.505 257.756C153.505 258.124 153.505 258.492 153.505 258.851C153.497 259.23 153.588 259.604 153.77 259.935C153.953 260.267 154.219 260.545 154.544 260.74Z" fill="#EBEBEB"/>
<path d="M140.936 265.475C139.684 265.47 138.452 265.154 137.351 264.558C136.25 263.961 135.314 263.1 134.626 262.054C133.938 261.007 133.52 259.806 133.409 258.558C133.298 257.311 133.498 256.055 133.99 254.904C134.483 253.752 135.252 252.74 136.231 251.958C137.209 251.176 138.366 250.649 139.598 250.423C140.83 250.196 142.099 250.279 143.291 250.662C144.483 251.046 145.562 251.718 146.432 252.62C147.838 254.09 148.602 256.057 148.558 258.091C148.492 260.061 147.664 261.93 146.249 263.302C144.834 264.675 142.941 265.445 140.969 265.45L140.936 265.475ZM140.936 265.475C141.894 265.474 142.842 265.282 143.724 264.909C144.606 264.537 145.404 263.992 146.073 263.306C146.741 262.62 147.265 261.808 147.615 260.916C147.964 260.025 148.132 259.072 148.108 258.115C148.053 256.247 147.272 254.475 145.932 253.172C144.592 251.87 142.797 251.141 140.928 251.14C139.024 251.14 137.198 251.896 135.852 253.243C134.505 254.589 133.749 256.416 133.749 258.32C133.749 260.224 134.505 262.05 135.852 263.396C137.198 264.743 139.024 265.499 140.928 265.499L140.936 265.475Z" fill="#EBEBEB"/>
<path d="M7.22168 357.968L52.0413 357.772L96.8608 357.698L186.5 357.567L276.139 357.698L320.959 357.772L365.778 357.968L320.959 358.172L276.139 358.246L186.5 358.377L96.8608 358.246L52.0413 358.172L7.22168 357.968Z" fill="#263238"/>
<path d="M94.481 269.232C101.677 300.543 116.56 338.077 122.913 344.169C130.952 351.872 184.128 366.002 186.778 366.288C193.32 366.951 206.51 319.678 199.51 318.656C188.879 317.118 150.152 315.017 147.838 312.637C145.523 310.258 129.087 289.536 112.291 266.256C100.696 250.171 90.0081 249.803 94.481 269.232Z" fill="#AD6359"/>
<path d="M181.512 363.737C182.289 364.129 193.402 369.723 200.27 371.71C205.398 373.198 220.264 377.082 222.464 371.595C223.968 367.866 215.488 364.555 209.552 362.077C206.42 360.769 202.56 357.498 203.484 355.486C205.12 351.97 213.158 355.486 218.457 358.577C228.703 364.53 242.351 375.25 248.606 370.025C250.97 368.063 248.222 364.481 244.207 360.973C250.749 365.062 257.683 368.414 260.39 366.337C261.952 365.152 262.025 363.524 261.158 361.676C263.17 362.33 264.944 362.2 266.187 360.858C268.305 358.634 267.275 355.363 264.953 352.003C265.351 351.961 265.734 351.826 266.07 351.606C266.406 351.387 266.684 351.092 266.882 350.743C271.372 343.899 248.892 324.249 241.132 322.409C218.277 316.971 194.187 317.985 194.187 317.985C185.208 325.189 181.487 363.721 181.512 363.737Z" fill="#AD6359"/>
<path d="M215.121 342.697C220.563 343.547 225.761 345.545 230.371 348.56C236.169 352.387 240.012 356.868 244.869 361.374C244.889 361.399 244.899 361.43 244.897 361.462C244.896 361.494 244.884 361.525 244.863 361.549C244.842 361.573 244.813 361.589 244.781 361.594C244.75 361.6 244.717 361.594 244.69 361.578C242.375 359.436 232.775 351.373 230.298 349.541C225.816 346.169 220.626 343.859 215.121 342.787C215.047 342.778 215.063 342.68 215.121 342.697Z" fill="#263238"/>
<path d="M219.381 332.99C225.391 334.626 231.549 336.261 237.125 339.14C243.226 342.247 248.001 347.317 252.662 352.223C255.486 355.151 258.242 358.149 260.929 361.218C261.036 361.349 260.864 361.553 260.75 361.423C255.985 356.385 251.079 351.479 246.03 346.703C241.358 342.269 235.856 338.801 229.839 336.498C226.405 335.182 222.872 334.143 219.34 333.097C219.291 333.08 219.315 332.974 219.381 332.99Z" fill="#263238"/>
<path d="M225.8 324.51C231.639 325.712 236.733 326.735 241.901 329.858C248.745 334.004 255.353 340.979 257.667 343.457C260.226 346.188 262.696 349.001 265.116 351.855C265.214 351.97 265.018 352.149 264.912 352.035C259.365 345.778 253.418 339.886 247.11 334.397C244.142 331.739 240.783 329.555 237.15 327.92C233.467 326.475 229.667 325.347 225.792 324.551C225.792 324.551 225.751 324.502 225.8 324.51Z" fill="#263238"/>
<path d="M190.507 316.104L174.153 367.915C174.153 367.915 129.873 355.273 121.818 346.548C113.763 337.823 98.7909 292.766 94.3997 270.925C90.0085 249.083 101.048 249.664 111.196 263.393C121.344 277.123 146.612 310.535 147.993 311.263C149.375 311.991 190.507 316.104 190.507 316.104Z" fill="url(#paint0_linear_440_29809)"/>
<path opacity="0.1" d="M190.507 316.104L174.153 367.915C174.153 367.915 129.873 355.273 121.818 346.548C113.763 337.823 98.7909 292.766 94.3997 270.925C90.0085 249.083 101.048 249.664 111.196 263.393C121.344 277.123 146.612 310.535 147.993 311.263C149.375 311.991 190.507 316.104 190.507 316.104Z" fill="black"/>
<path d="M169.9 344.896C171.888 338.788 173.915 332.696 175.665 326.514C176.663 323.006 177.677 319.49 178.642 315.973C178.683 315.834 178.462 315.761 178.413 315.892C176.181 321.943 173.956 328.018 172.002 334.168C170.048 340.317 168.061 346.434 166.196 352.542C165.141 356.042 164.185 359.558 163.342 363.115C163.342 363.181 163.44 363.222 163.465 363.156C165.902 357.179 167.905 351.046 169.9 344.896Z" fill="#263238"/>
<path d="M151.821 360.793L149.858 360.106C146.17 358.79 142.408 357.375 138.868 355.927C138.41 355.748 137.96 355.56 137.518 355.371C136.807 355.077 136.096 354.775 135.409 354.472L134.378 354.022L134.01 353.859L132.947 353.368C131.541 352.722 130.208 352.076 128.965 351.422L128.147 350.964C126.204 349.964 124.373 348.761 122.685 347.374C122.53 347.235 122.374 347.096 122.235 346.957C122.096 346.818 121.949 346.679 121.826 346.548C113.731 337.823 98.7991 292.766 94.408 270.925L94.2608 270.173V270.009C93.9664 268.374 93.7047 266.297 93.4921 264.072C92.8788 253.205 98.0223 251.43 104.376 256.206C120.215 290.199 144.477 346.368 151.821 360.793Z" fill="#263238"/>
<path d="M128.85 369.494L32.3584 370.001C32.4402 367.924 46.178 307.166 57.1028 284.744C71.1104 255.993 78.3637 253.671 82.6404 252.133C88.16 250.155 97.9891 251.136 100.32 252.24C102.969 253.475 111.392 268.177 114.409 278.963C120.444 300.657 130.208 368.169 128.85 369.494Z" fill="#EBEBEB"/>
<path d="M77.6932 254.407C77.6932 254.407 89.959 299.831 90.5723 302.849C91.4964 307.232 97.613 369.772 97.613 369.772L30.355 370.001C30.355 370.001 45.0332 312.105 55.958 286.756C67.8804 258.953 77.6932 254.407 77.6932 254.407Z" fill="url(#paint1_linear_440_29809)"/>
<g opacity="0.1">
<path d="M77.6932 254.407C77.6932 254.407 89.959 299.831 90.5723 302.849C91.4964 307.232 97.613 369.772 97.613 369.772L30.355 370.001C30.355 370.001 45.0332 312.105 55.958 286.756C67.8804 258.953 77.6932 254.407 77.6932 254.407Z" fill="black"/>
</g>
<path d="M101.203 252.943C101.563 254.39 112.872 291.294 113.657 300.494C114.532 310.699 122.268 370.001 122.268 370.001H132.08C132.08 370.001 117.877 284.802 113.976 275.798C105.995 257.424 101.203 252.943 101.203 252.943Z" fill="url(#paint2_linear_440_29809)"/>
<path opacity="0.1" d="M101.203 252.943C101.563 254.39 112.872 291.294 113.657 300.494C114.532 310.699 122.268 370.001 122.268 370.001H132.08C132.08 370.001 117.877 284.802 113.976 275.798C105.995 257.424 101.203 252.943 101.203 252.943Z" fill="black"/>
<path d="M64.9941 265.029C48.8358 282.34 9.55223 348.02 22.0144 360C34.4765 371.98 103.664 355.854 123.094 346.589C128.875 343.842 106.911 307.796 100.115 306.954C94.4567 306.259 65.5419 319.481 64.6997 317.822C63.7593 315.941 68.3549 302.064 75.3301 276.935C83.3357 247.971 72.141 257.375 64.9941 265.029Z" fill="#AD6359"/>
<path d="M128.834 295.326C142.883 293.363 146.824 295.023 157.773 287.075C164.977 281.858 171.405 284.221 167.292 292.505C160.57 306.063 142.972 312.392 136.218 312.833L128.834 295.326Z" fill="#AD6359"/>
<path d="M91.5127 308.835C91.5127 308.835 107.303 300.069 122.071 296.503C132.276 294.05 155.091 291.147 176.924 313.676C182.1 319.015 185.69 330.3 174.07 324.649C165.811 320.634 161.804 315.597 156.563 314.134C156.563 314.134 159.425 329.024 153.873 334.004C149.02 338.356 143.863 342.357 138.442 345.976C137.551 345.137 136.715 344.241 135.94 343.294C135.94 343.294 130.314 347.456 119.732 346.442L91.5127 308.835Z" fill="#AD6359"/>
<path d="M132.195 295.751C137.101 298.294 147.331 303.863 154.134 311.337C161.698 319.645 174.021 337.668 167.831 343.228C163.301 347.276 158.018 340.775 158.018 340.775C158.018 340.775 161.543 349.304 156.645 352.06C152.188 354.578 148.377 349.329 148.377 349.329C148.377 349.329 149.629 354.865 144.861 356.459C139.137 358.373 137.453 346.45 129.97 343.375C128.261 342.64 132.195 295.751 132.195 295.751Z" fill="#AD6359"/>
<path d="M144.035 317.83C148.23 320.978 155.933 330.57 158.059 340.505C158.108 340.734 157.969 340.89 157.879 340.693C154.185 332.562 149.517 324.909 143.978 317.903C143.913 317.83 143.978 317.83 144.035 317.83Z" fill="#263238"/>
<path d="M135.875 325.704C139.219 328.795 146.718 339.033 148.525 349.181C148.566 349.41 148.41 349.557 148.337 349.353C145.062 341.044 140.857 333.132 135.801 325.77C135.752 325.721 135.801 325.663 135.875 325.704Z" fill="#263238"/>
<path d="M156.563 314.035C161.142 315.385 164.119 317.633 168.011 320.316C169.906 321.669 171.874 322.917 173.907 324.052C175.771 325.058 178.527 326.579 180.506 325.001C181.618 324.126 181.602 322.548 181.324 321.264C180.765 319.406 179.915 317.648 178.805 316.055C178.805 315.99 178.862 315.916 178.911 315.973C179.982 317.424 180.903 318.981 181.659 320.618C182.154 321.74 182.299 322.986 182.076 324.192C181.397 326.71 178.421 327.045 176.352 326.35C175.098 325.89 173.893 325.306 172.754 324.609C171.642 323.971 170.562 323.284 169.483 322.564C167.308 321.092 165.223 319.498 163.064 318.001C160.967 316.593 158.782 315.321 156.522 314.191C156.505 314.183 156.491 314.169 156.483 314.151C156.475 314.134 156.473 314.115 156.478 314.096C156.483 314.078 156.494 314.062 156.51 314.05C156.525 314.039 156.544 314.034 156.563 314.035Z" fill="#263238"/>
<path d="M166.155 330.144C164.969 327.536 158.55 316.66 156.473 314.142C156.465 314.129 156.462 314.114 156.464 314.1C156.466 314.085 156.472 314.072 156.483 314.061C156.493 314.051 156.507 314.044 156.521 314.042C156.536 314.041 156.55 314.044 156.563 314.052C160.136 317.437 165.869 326.424 167.193 329.302C168.518 332.181 170.039 335.787 170.039 338.951C170.039 343.735 166.866 344.675 165.697 344.88C164.298 345.133 162.853 344.897 161.608 344.209C160.152 343.319 158.893 342.139 157.912 340.742C157.863 340.677 157.953 340.587 158.01 340.652C159.646 342.541 162.426 344.397 165.018 344.054C165.593 344 166.151 343.831 166.66 343.557C167.168 343.283 167.617 342.91 167.978 342.459C168.687 341.309 168.96 339.942 168.747 338.608C168.365 335.661 167.488 332.8 166.155 330.144Z" fill="#263238"/>
<path d="M91.5129 308.835L113.657 355.445C113.657 355.445 27.0434 374.89 19.5693 359.812C12.0953 344.733 45.7366 285.726 60.889 268.537C78.462 248.617 80.7025 255.396 76.8347 273.051C72.7461 291.531 64.9531 318.255 64.9531 318.255L91.5129 308.835Z" fill="url(#paint3_linear_440_29809)"/>
<path opacity="0.1" d="M91.5129 308.835L113.657 355.445C113.657 355.445 27.0434 374.89 19.5693 359.812C12.0953 344.733 45.7366 285.726 60.889 268.537C78.462 248.617 80.7025 255.396 76.8347 273.051C72.7461 291.531 64.9531 318.255 64.9531 318.255L91.5129 308.835Z" fill="black"/>
<path d="M38.6304 330.66C46.6195 325.111 55.3923 320.787 64.6587 317.83C67.2836 317.012 69.933 316.235 72.5824 315.475C72.6642 315.475 72.6969 315.581 72.5824 315.605C67.9615 317.101 63.4317 318.865 59.0163 320.888C54.6061 322.85 50.2449 324.892 45.9327 327.013C43.4795 328.215 41.0918 329.531 38.6877 330.815C38.6715 330.812 38.6565 330.804 38.6441 330.793C38.6316 330.782 38.6221 330.769 38.6164 330.753C38.6107 330.738 38.609 330.721 38.6114 330.705C38.6139 330.688 38.6204 330.673 38.6304 330.66Z" fill="#263238"/>
<path d="M91.2839 308.712C90.8505 308.826 67.161 316.652 66.3841 317.012C66.4823 316.652 70.7344 304.059 71.3723 302.211C71.4295 302.031 71.4867 301.843 71.5522 301.663C71.9774 300.845 72.419 300.028 72.8196 299.21C73.3266 298.139 73.8336 297.051 74.3324 295.939H74.2834L72.6479 299.104C72.3944 299.586 72.1573 300.085 71.9201 300.584C72.3372 299.284 72.7379 297.975 73.1386 296.659C73.7764 294.573 74.3488 292.464 74.913 290.354C74.913 290.28 74.8312 290.264 74.8067 290.354C73.5474 294.026 72.1736 297.656 70.9062 301.328C69.6387 304.999 64.765 318.5 64.8059 318.5C64.8468 318.5 90.8914 309.293 91.3984 309.088C91.4231 309.081 91.446 309.068 91.466 309.052C91.4859 309.035 91.5025 309.015 91.5146 308.993C91.5268 308.97 91.5343 308.945 91.5368 308.919C91.5393 308.893 91.5367 308.867 91.5292 308.843C91.5217 308.818 91.5094 308.795 91.493 308.775C91.4766 308.755 91.4564 308.739 91.4336 308.727C91.4109 308.714 91.3859 308.707 91.3602 308.704C91.3345 308.702 91.3086 308.704 91.2839 308.712Z" fill="#263238"/>
<path d="M92.8783 339.091C90.4251 333.898 88.0456 328.673 85.4207 323.554C83.9242 320.651 82.4441 317.74 80.9232 314.853C80.8659 314.747 80.6697 314.853 80.7187 314.943C82.9593 320.258 85.2162 325.574 87.7021 330.799C90.188 336.024 92.6085 341.184 95.1353 346.336C96.5745 349.263 98.1036 352.144 99.7227 354.979C99.7227 355.036 99.8535 354.979 99.829 354.979C97.7683 349.566 95.3397 344.34 92.8783 339.091Z" fill="#263238"/>
<path d="M114.777 356.165C113.91 354.725 112.814 352.665 111.89 351.258C111.645 350.89 111.359 350.964 111.555 351.348C112.217 352.657 112.765 354.12 113.411 355.437C112.201 355.682 110.958 355.895 109.764 356.148C108.358 356.443 106.959 356.745 105.553 357.031C102.794 357.577 100.036 358.122 97.2775 358.667C91.6843 359.708 86.0692 360.624 80.4324 361.414C69.1397 363.068 57.769 364.135 46.3659 364.612C43.1768 364.726 39.9794 364.783 36.7903 364.743C33.6445 364.751 30.5003 364.598 27.3701 364.285C27.2802 364.285 27.2638 364.424 27.3701 364.44C30.0636 365.009 32.7979 365.365 35.5474 365.503C38.4339 365.642 41.3287 365.708 44.2234 365.675C49.9475 365.609 55.7289 365.233 61.4611 364.71C72.8275 363.663 84.1612 362.126 95.3968 360.139C98.5477 359.594 101.691 359.002 104.825 358.364C106.412 358.045 107.99 357.726 109.568 357.375C111.146 357.023 114.924 356.41 114.777 356.165Z" fill="#263238"/>
<path d="M101.219 269.894C95.4954 271.473 85.2492 263.009 81.0625 255.993C80.7763 255.511 81.3405 250.31 81.7248 243.956C81.9456 240.105 82.0928 235.779 81.9456 231.87C81.9456 231.052 106.829 236.956 106.829 236.956C106.829 236.956 104.703 245.281 104.997 252.133C105.023 252.684 105.1 253.232 105.226 253.769C105.249 253.855 105.265 253.942 105.275 254.031C105.889 257.064 106.755 268.365 101.219 269.894Z" fill="#AD6359"/>
<path d="M83.4668 231.968C84.8569 238.576 89.5834 254.48 102.749 254.292C103.593 254.284 104.435 254.207 105.267 254.063C105.278 253.974 105.278 253.883 105.267 253.793C105.146 253.255 105.067 252.709 105.03 252.158C104.744 245.297 106.862 236.965 106.862 236.965C106.862 236.965 88.8556 232.713 83.4668 231.968Z" fill="#263238"/>
<path d="M109.797 220.07C109.519 226.105 113.591 231.192 118.89 231.437C124.189 231.682 128.703 226.972 128.973 220.937C129.243 214.902 125.17 209.816 119.88 209.579C114.589 209.342 110.067 214.036 109.797 220.07Z" fill="#455A64"/>
<path d="M128 221.271C128.304 214.557 123.774 208.899 117.882 208.633C111.989 208.366 106.967 213.592 106.663 220.305C106.359 227.019 110.89 232.677 116.782 232.943C122.674 233.21 127.697 227.984 128 221.271Z" fill="#C7C7C7"/>
<path d="M85.192 200.56C80.9071 208.639 80.6373 234.324 85.6745 241.045C92.9768 250.776 107.328 254.35 116.176 245.052C124.786 236.008 124.541 202.53 118.694 196.177C110.1 186.797 91.5212 188.629 85.192 200.56Z" fill="#AD6359"/>
<path d="M106.551 220.414C106.551 220.348 106.412 220.504 106.42 220.577C106.51 222.303 106.33 224.298 104.785 224.903C104.736 224.903 104.744 225.01 104.785 225.001C106.698 224.691 106.911 222.041 106.551 220.414Z" fill="#263238"/>
<path d="M104.964 218.648C102.176 218.5 102.086 224.085 104.662 224.216C107.238 224.347 107.303 218.77 104.964 218.648Z" fill="#263238"/>
<path d="M116.233 220.626C116.233 220.561 116.364 220.716 116.364 220.782C116.282 222.515 116.478 224.511 117.999 225.108C118.048 225.108 117.999 225.214 117.999 225.206C116.11 224.903 115.873 222.254 116.233 220.626Z" fill="#263238"/>
<path d="M117.811 218.885C120.591 218.713 120.722 224.298 118.138 224.453C115.554 224.609 115.472 218.983 117.811 218.885Z" fill="#263238"/>
<path d="M102.462 214.183C103.28 214.142 103.959 213.97 104.735 213.856C105.555 213.84 106.346 213.552 106.984 213.038C107.155 212.841 107.256 212.593 107.271 212.332C107.286 212.072 107.214 211.814 107.066 211.599C106.708 211.223 106.257 210.948 105.758 210.805C105.26 210.661 104.731 210.653 104.228 210.781C103.163 210.866 102.168 211.347 101.44 212.13C101.288 212.318 101.192 212.546 101.166 212.786C101.139 213.026 101.182 213.269 101.29 213.486C101.398 213.702 101.566 213.883 101.774 214.007C101.982 214.13 102.221 214.191 102.462 214.183Z" fill="#263238"/>
<path d="M120.436 214.796C119.689 214.632 118.952 214.427 118.228 214.183C117.423 214.086 116.673 213.727 116.094 213.161C115.947 212.945 115.876 212.686 115.892 212.426C115.909 212.165 116.011 211.917 116.183 211.721C116.583 211.386 117.065 211.164 117.58 211.076C118.094 210.988 118.623 211.039 119.111 211.223C120.157 211.442 121.083 212.043 121.711 212.907C121.834 213.113 121.895 213.348 121.888 213.587C121.882 213.826 121.807 214.059 121.673 214.257C121.539 214.455 121.352 214.611 121.133 214.706C120.914 214.802 120.672 214.833 120.436 214.796Z" fill="#263238"/>
<path d="M103.394 236.45C103.803 236.859 104.212 237.423 104.834 237.488C105.477 237.482 106.112 237.343 106.698 237.079C106.71 237.077 106.722 237.078 106.733 237.082C106.745 237.086 106.755 237.093 106.762 237.102C106.77 237.111 106.775 237.122 106.776 237.134C106.778 237.146 106.776 237.158 106.772 237.169C106.521 237.507 106.183 237.77 105.794 237.93C105.405 238.09 104.98 238.141 104.564 238.077C104.212 237.979 103.898 237.779 103.659 237.502C103.42 237.226 103.269 236.885 103.223 236.523C103.198 236.425 103.329 236.384 103.394 236.45Z" fill="#263238"/>
<path d="M105.299 231.298C105.726 231.989 106.292 232.584 106.961 233.046C107.629 233.508 108.386 233.826 109.184 233.98C109.879 234.128 110.593 234.175 111.302 234.119C111.439 234.114 111.575 234.1 111.71 234.078L112.087 234.021C112.179 234.006 112.264 233.961 112.329 233.893C112.394 233.825 112.435 233.738 112.446 233.645C112.45 233.585 112.45 233.525 112.446 233.465V233.31C112.504 231.977 112.446 229.949 112.446 229.949C112.929 230.202 115.398 231.363 115.366 230.668C115.12 224.895 114.842 218.484 113.379 212.801C113.37 212.765 113.35 212.733 113.321 212.709C113.292 212.686 113.256 212.674 113.219 212.674C113.182 212.674 113.146 212.686 113.117 212.709C113.088 212.733 113.068 212.765 113.06 212.801C113.06 218.353 114.074 223.865 114.18 229.442C113.304 229.018 112.374 228.718 111.416 228.55C111.228 228.608 111.67 232.467 111.596 233.064C111.598 233.086 111.598 233.108 111.596 233.13C109.347 233.375 107.671 232.672 105.528 231.134C105.332 231.044 105.193 231.151 105.299 231.298Z" fill="#263238"/>
<path d="M110.525 233.424C109.782 234.365 108.807 235.098 107.696 235.55C107.083 235.777 106.414 235.808 105.782 235.64C104.409 235.247 104.392 234.004 104.662 232.9C104.813 232.332 105.03 231.783 105.308 231.265C106.773 232.522 108.601 233.278 110.525 233.424Z" fill="#263238"/>
<path d="M107.696 235.55C107.083 235.777 106.414 235.808 105.782 235.64C104.409 235.247 104.392 234.005 104.662 232.901C106.142 233.081 107.59 234.111 107.696 235.55Z" fill="#FF98B9"/>
<path opacity="0.2" d="M81.978 218.697C83.6625 218.427 87.7021 212.727 89.4112 210.462C91.1202 208.197 92.1097 196.054 92.265 193.29C89.2662 194.986 86.8105 197.498 85.1835 200.535C83.27 204.166 82.1661 211.304 81.978 218.697Z" fill="#263238"/>
<path d="M113.158 203.348C112.159 204.443 110.898 205.265 109.492 205.736C108.087 206.207 106.585 206.311 105.128 206.038C103.641 205.765 102.249 205.115 101.084 204.152C99.9191 203.189 99.0198 201.944 98.4716 200.535C98.4716 200.445 98.308 200.494 98.3408 200.576C98.7829 202.111 99.6358 203.495 100.807 204.58C101.979 205.666 103.425 206.41 104.989 206.733C106.543 206.968 108.131 206.789 109.594 206.215C111.057 205.641 112.342 204.692 113.321 203.463C113.327 203.442 113.326 203.419 113.319 203.399C113.311 203.378 113.298 203.361 113.28 203.348C113.262 203.336 113.241 203.329 113.219 203.329C113.197 203.329 113.176 203.336 113.158 203.348Z" fill="#263238"/>
<path d="M104.85 181.58C99.8044 181.531 95.0943 184.172 93.14 187.541C92.0545 189.461 91.6509 191.692 91.9951 193.871C91.9951 193.961 92.1832 193.944 92.175 193.871C92.1326 191.951 92.6075 190.055 93.5499 188.382C94.4922 186.708 95.8674 185.319 97.5311 184.36C99.3529 183.244 101.409 182.565 103.537 182.378C105.666 182.191 107.808 182.5 109.797 183.281C111.735 183.998 113.354 185.385 114.36 187.19C114.458 187.378 114.834 187.272 114.761 187.083C113.485 183.878 109.405 181.621 104.85 181.58Z" fill="#263238"/>
<path d="M133.757 193.429C133.009 190.916 131.399 188.748 129.21 187.304C126.176 185.293 122.668 185.464 119.201 185.71C119.182 185.71 119.163 185.717 119.149 185.731C119.135 185.745 119.127 185.764 119.127 185.783C119.127 185.803 119.135 185.821 119.149 185.835C119.163 185.849 119.182 185.857 119.201 185.857C122.161 185.661 125.179 185.628 127.844 187.108C130.063 188.309 131.797 190.242 132.751 192.579C133.658 194.975 133.67 197.618 132.784 200.022C131.897 202.426 130.172 204.429 127.926 205.662C126.616 206.339 125.182 206.741 123.711 206.843C122.24 206.946 120.764 206.747 119.373 206.259C119.258 206.218 119.177 206.374 119.283 206.423C121.162 207.163 123.21 207.366 125.198 207.009C127.187 206.652 129.036 205.748 130.54 204.4C132.044 203.051 133.143 201.311 133.714 199.373C134.285 197.436 134.305 195.378 133.773 193.429H133.757Z" fill="#263238"/>
<path d="M83.3682 205.507C83.3682 205.507 78.9034 196.324 83.0902 191.254C85.4616 188.384 92.9683 189.038 92.9683 189.038C92.9683 189.038 95.5441 184.81 101.824 183.608C108.104 182.406 115.513 186.339 115.513 186.339C115.513 186.339 121.613 183.142 127.092 186.544C134.738 191.287 133.331 203.135 125.334 206.668C119.724 209.121 112.414 204.002 112.414 204.002C111.686 204.076 104.147 208.246 98.815 201.467C98.815 201.467 94.1376 205.327 90.1717 202.359C89.497 203.517 88.4825 204.441 87.2656 205.004C86.0487 205.567 84.6882 205.743 83.3682 205.507Z" fill="#263238"/>
<path d="M86.5819 221.804C86.5819 221.804 82.3379 212.809 78.3392 214.15C74.3406 215.491 76.5566 227.937 80.5635 230.276C81.0578 230.611 81.615 230.843 82.2013 230.958C82.7876 231.072 83.3911 231.067 83.9754 230.943C84.5597 230.818 85.1129 230.577 85.6015 230.233C86.0902 229.889 86.5043 229.45 86.8191 228.943L86.5819 221.804Z" fill="#AD6359"/>
<path d="M79.059 217.691C78.9936 217.691 78.9609 217.773 79.059 217.805C81.8556 219.539 82.9596 222.605 83.5647 225.688C82.8696 224.421 81.7493 223.603 80.0812 224.404C80.0639 224.416 80.0507 224.432 80.0434 224.452C80.0361 224.471 80.0351 224.492 80.0405 224.512C80.046 224.532 80.0576 224.55 80.0737 224.563C80.0898 224.576 80.1096 224.583 80.1302 224.584C80.6886 224.509 81.2568 224.607 81.7573 224.866C82.2578 225.125 82.6662 225.532 82.9268 226.032C83.3507 226.872 83.6851 227.754 83.9245 228.665C84.0226 228.959 84.5296 228.894 84.4805 228.567C84.4844 228.542 84.4844 228.517 84.4805 228.493C85.1674 224.674 83.1149 218.795 79.059 217.691Z" fill="#263238"/>
<path d="M95.8303 239.917L87.7757 236.441L81.2993 228.378L82.5423 227.373L88.7733 235.133L96.4681 238.453L95.8303 239.917Z" fill="#C7C7C7"/>
<path d="M94.9719 238.633C95.7896 236.286 102.331 237.153 101.146 240.702C99.96 244.251 94.1787 240.963 94.9719 238.633Z" fill="#37474F"/>
<path d="M78.2165 213.905C78.2165 213.905 77.3415 200.715 81.2012 193.462C85.5024 185.358 103.329 177.647 115.546 186.356C115.546 186.356 95.6995 182.807 86.451 194.042C82.5586 198.769 82.6567 214.273 82.6567 214.273L78.2165 213.905Z" fill="#C7C7C7"/>
<path d="M80.0163 232.848C85.9141 232.79 90.6411 227.295 90.5742 220.575C90.5074 213.855 85.672 208.455 79.7742 208.514C73.8764 208.573 69.1494 214.068 69.2163 220.788C69.2831 227.507 74.1184 232.907 80.0163 232.848Z" fill="#C7C7C7"/>
<path d="M87.4568 220.226C87.514 226.269 83.27 231.208 77.9711 231.257C72.6723 231.306 68.322 226.457 68.2647 220.414C68.2075 214.371 72.4515 209.432 77.7504 209.383C83.0492 209.334 87.3995 214.183 87.4568 220.226Z" fill="#455A64"/>
<path d="M105.177 253.622L99.4124 268.177L81.2752 249.876L76.189 255.797C76.189 255.797 93.9745 284.916 94.0808 283.6L100.009 271.047L108.694 279.723L107.876 257.857L105.177 253.622Z" fill="#EBEBEB"/>
<path d="M108.906 268.889C108.652 265.283 108.505 261.644 108.088 258.054C108.088 257.931 107.876 257.874 107.843 258.054C107.14 261.545 108.178 275.324 108.178 278.636H108.137C107.777 278.26 100.091 271.007 100.017 271.121C98.7334 273.116 94.3749 282.25 94.0806 283.084C91.2676 278.456 79.3615 260.229 76.0088 255.854C75.9925 255.826 75.9658 255.805 75.9343 255.797C75.9029 255.788 75.8694 255.793 75.8412 255.809C75.813 255.825 75.7924 255.852 75.784 255.884C75.7755 255.915 75.7799 255.949 75.7962 255.977C78.2494 260.883 93.7044 284.932 93.917 284.867C96.2114 280.555 98.2829 276.128 100.124 271.604C101.424 273.182 109.176 281.375 109.2 280.836C109.313 276.851 109.215 272.863 108.906 268.889Z" fill="#263238"/>
<path d="M199.535 360.982H193.925V364.645H199.535V360.982Z" fill="#455A64"/>
<path d="M206.804 360.737H201.195V364.4H206.804V360.737Z" fill="#455A64"/>
<path d="M214.082 360.491H208.473V364.155H214.082V360.491Z" fill="#455A64"/>
<path d="M221.36 360.254H215.75V363.918H221.36V360.254Z" fill="#455A64"/>
<path d="M228.638 360.009H223.028V363.672H228.638V360.009Z" fill="#455A64"/>
<path d="M235.915 359.772H230.306V363.435H235.915V359.772Z" fill="#455A64"/>
<path d="M243.193 359.526H237.583V363.19H243.193V359.526Z" fill="#455A64"/>
<path d="M250.471 359.281H244.861V362.944H250.471V359.281Z" fill="#455A64"/>
<path d="M257.74 359.044H252.131V362.707H257.74V359.044Z" fill="#455A64"/>
<path d="M259.123 366.747H192.543V362.29L259.123 360.434V366.747Z" fill="#37474F"/>
<path d="M324.099 349.174H214.197L231.672 267.352H341.574L324.099 349.174Z" fill="#455A64"/>
<path d="M328.163 349.174H218.261L235.736 267.352H345.638L328.163 349.174Z" fill="#37474F"/>
<path d="M288.916 308.117C291.898 305.362 292.407 301.063 290.053 298.516C287.699 295.968 283.373 296.137 280.391 298.892C277.409 301.648 276.9 305.947 279.254 308.494C281.608 311.041 285.934 310.873 288.916 308.117Z" fill="#263238"/>
<path d="M297.081 370.541H243.03V366.338L297.081 364.596V370.541Z" fill="#455A64"/>
<path d="M311.776 370.533H282.754L265.271 324.683H294.293L311.776 370.533Z" fill="#455A64"/>
<path d="M316.552 370.533H287.53L270.056 324.683H299.077L316.552 370.533Z" fill="#263238"/>
<path d="M190.491 371.653H134.763C130.012 371.653 136.889 358.112 154.249 352.919C171.609 347.727 195.969 366.575 190.491 371.653Z" fill="#37474F"/>
<path d="M168.625 371.653C168.669 370.11 168.925 368.58 169.385 367.107C169.834 365.621 170.463 364.196 171.258 362.863C172.057 361.523 173.055 360.313 174.218 359.273C175.367 358.229 176.694 357.399 178.135 356.82C177.538 357.31 176.859 357.637 176.311 358.185L175.493 358.913L174.676 359.731C173.642 360.809 172.737 362.002 171.977 363.288C171.206 364.574 170.544 365.922 169.998 367.319C169.443 368.731 168.985 370.179 168.625 371.653Z" fill="#263238"/>
<path d="M175.224 358.766C178.534 359.861 181.666 361.434 184.521 363.435C185.964 364.432 187.27 365.614 188.405 366.951C188.963 367.635 189.443 368.378 189.836 369.167C190.225 369.956 190.448 370.816 190.491 371.694C190.295 370.862 189.955 370.07 189.485 369.356C189.04 368.639 188.519 367.973 187.931 367.368C186.74 366.161 185.439 365.066 184.047 364.098C182.665 363.1 181.201 362.209 179.737 361.325C179.002 360.884 178.249 360.459 177.497 360.05C176.745 359.641 175.984 359.183 175.224 358.766Z" fill="#263238"/>
<defs>
<linearGradient id="paint0_linear_440_29809" x1="94.7243" y1="310.803" x2="190.507" y2="310.803" gradientUnits="userSpaceOnUse">
<stop stop-color="#FF8200"/>
<stop offset="1" stop-color="#FF002B"/>
</linearGradient>
<linearGradient id="paint1_linear_440_29809" x1="31.2659" y1="312.204" x2="97.613" y2="312.204" gradientUnits="userSpaceOnUse">
<stop stop-color="#FF8200"/>
<stop offset="1" stop-color="#FF002B"/>
</linearGradient>
<linearGradient id="paint2_linear_440_29809" x1="101.621" y1="311.472" x2="132.08" y2="311.472" gradientUnits="userSpaceOnUse">
<stop stop-color="#FF8200"/>
<stop offset="1" stop-color="#FF002B"/>
</linearGradient>
<linearGradient id="paint3_linear_440_29809" x1="19.7893" y1="310.967" x2="113.657" y2="310.967" gradientUnits="userSpaceOnUse">
<stop stop-color="#FF8200"/>
<stop offset="1" stop-color="#FF002B"/>
</linearGradient>
</defs>
</svg>
