<svg width="114" height="114" viewBox="0 0 114 114" fill="none" xmlns="http://www.w3.org/2000/svg">
<rect x="0.431641" y="57" width="80" height="80" rx="9.6" transform="rotate(-45 0.431641 57)" fill="#FEE2E2"/>
<rect x="56.5835" y="84.4771" width="38.858" height="38.858" rx="8" transform="rotate(-135 56.5835 84.4771)" fill="#FF002B"/>
<g clip-path="url(#clip0_440_29726)">
<path d="M51.6437 60.605C50.4969 59.4582 48.6369 59.4582 47.49 60.605C46.3432 61.7519 46.3432 63.6119 47.49 64.7588C48.6369 65.9056 50.4969 65.9056 51.6437 64.7588C52.791 63.6115 52.791 61.7519 51.6437 60.605ZM59.2385 48.8566C58.0916 50.0035 58.0916 51.8635 59.2385 53.0103C60.3853 54.1572 62.2453 54.1572 63.3922 53.0103C64.539 51.8635 64.539 50.0035 63.3922 48.8566C62.2453 47.7093 60.3858 47.7093 59.2385 48.8566ZM48.6176 48.9456L47.5795 49.9837C47.0059 50.5574 47.0059 51.4872 47.5795 52.0604L60.1884 64.6693C60.7621 65.2429 61.6919 65.2429 62.2651 64.6693L63.3031 63.6312C63.8768 63.0575 63.8768 62.1278 63.3031 61.5546L50.6942 48.9456C50.121 48.372 49.1912 48.372 48.6176 48.9456Z" fill="white"/>
</g>
<defs>
<clipPath id="clip0_440_29726">
<rect width="17.6227" height="23.4969" fill="white" transform="translate(43.6934 65.6187) rotate(-90)"/>
</clipPath>
</defs>
</svg>
