<svg width="31" height="31" viewBox="0 0 31 31" fill="none" xmlns="http://www.w3.org/2000/svg">
<path d="M15.0496 12.2407C14.3158 12.2407 13.5986 12.4583 12.9885 12.8659C12.3785 13.2735 11.903 13.8529 11.6222 14.5308C11.3414 15.2087 11.2679 15.9546 11.4111 16.6742C11.5542 17.3938 11.9075 18.0548 12.4264 18.5736C12.9452 19.0925 13.6062 19.4458 14.3258 19.5889C15.0455 19.7321 15.7914 19.6586 16.4692 19.3778C17.1471 19.097 17.7265 18.6216 18.1341 18.0115C18.5418 17.4014 18.7593 16.6842 18.7593 15.9504C18.7593 15.4633 18.6634 14.9809 18.4769 14.5308C18.2905 14.0807 18.0173 13.6717 17.6728 13.3272C17.3283 12.9828 16.9193 12.7095 16.4692 12.5231C16.0191 12.3366 15.5367 12.2407 15.0496 12.2407ZM29.9036 8.57578C29.8957 7.42061 29.683 6.27598 29.2753 5.19511C28.9751 4.40418 28.5105 3.68591 27.9123 3.0877C27.3141 2.48948 26.5958 2.02493 25.8049 1.72468C24.724 1.317 23.5794 1.10428 22.4242 1.09641C20.4946 0.991699 19.9261 0.991699 15.0496 0.991699C10.173 0.991699 9.60458 0.991699 7.6749 1.09641C6.51973 1.10428 5.3751 1.317 4.29423 1.72468C3.5033 2.02493 2.78503 2.48948 2.18682 3.0877C1.5886 3.68591 1.12405 4.40418 0.823799 5.19511C0.416119 6.27598 0.203401 7.42061 0.195531 8.57578C0.0908202 10.5055 0.0908203 11.0739 0.0908203 15.9504C0.0908203 20.827 0.0908202 21.3954 0.195531 23.3251C0.211633 24.4844 0.424063 25.6325 0.823799 26.7207C1.12272 27.5081 1.58689 28.2222 2.18505 28.815C2.78069 29.4168 3.5005 29.8813 4.29423 30.1762C5.3751 30.5839 6.51973 30.7966 7.6749 30.8045C9.60458 30.9092 10.173 30.9092 15.0496 30.9092C19.9261 30.9092 20.4946 30.9092 22.4242 30.8045C23.5794 30.7966 24.724 30.5839 25.8049 30.1762C26.5986 29.8813 27.3184 29.4168 27.9141 28.815C28.5122 28.2222 28.9764 27.5081 29.2753 26.7207C29.6826 25.6346 29.8953 24.4851 29.9036 23.3251C30.0083 21.3954 30.0083 20.827 30.0083 15.9504C30.0083 11.0739 30.0083 10.5055 29.9036 8.57578ZM26.1041 20.5428C26.0561 21.4659 25.8591 22.3752 25.5207 23.2354C25.2303 23.9529 24.7986 24.6047 24.2512 25.1521C23.7039 25.6995 23.052 26.1312 22.3345 26.4216C21.4661 26.7411 20.5518 26.9179 19.6269 26.9451H10.4722C9.54734 26.9179 8.63299 26.7411 7.76466 26.4216C7.02286 26.1459 6.35297 25.7061 5.80506 25.1351C5.26306 24.5985 4.84448 23.9502 4.57844 23.2354C4.25766 22.3679 4.08571 21.4525 4.06985 20.5278V11.3731C4.08571 10.4484 4.25766 9.53297 4.57844 8.66554C4.85411 7.92374 5.29388 7.25384 5.8649 6.70594C6.40391 6.16686 7.05152 5.74872 7.76466 5.47932C8.63299 5.15981 9.54734 4.98301 10.4722 4.95577H19.6269C20.5518 4.98301 21.4661 5.15981 22.3345 5.47932C23.0763 5.75498 23.7462 6.19476 24.2941 6.76578C24.8361 7.30242 25.2547 7.95071 25.5207 8.66554C25.8402 9.53387 26.017 10.4482 26.0442 11.3731V15.9504C26.0442 19.0319 26.149 19.3461 26.1041 20.5278V20.5428ZM23.7107 9.41347C23.5326 8.93028 23.2518 8.49148 22.8876 8.12734C22.5235 7.7632 22.0847 7.48239 21.6015 7.30429C20.938 7.07431 20.2393 6.96292 19.5372 6.9752H10.5619C9.85629 6.98209 9.15742 7.11377 8.49764 7.36413C8.02184 7.53414 7.58768 7.80348 7.22402 8.15425C6.86036 8.50501 6.57553 8.92917 6.38845 9.39851C6.17122 10.0647 6.06509 10.7621 6.07432 11.4628V20.4381C6.08915 21.1429 6.22057 21.8405 6.46325 22.5024C6.64135 22.9856 6.92216 23.4244 7.2863 23.7885C7.65044 24.1526 8.08924 24.4335 8.57243 24.6116C9.21067 24.8463 9.8823 24.9776 10.5619 25.0005H19.5372C20.2428 24.9936 20.9417 24.8619 21.6015 24.6116C22.0847 24.4335 22.5235 24.1526 22.8876 23.7885C23.2518 23.4244 23.5326 22.9856 23.7107 22.5024C23.961 21.8426 24.0927 21.1437 24.0996 20.4381V11.4628C24.1 10.7565 23.9681 10.0563 23.7107 9.39851V9.41347ZM15.0496 21.6647C14.2999 21.6647 13.5575 21.5168 12.8651 21.2294C12.1726 20.9421 11.5437 20.5209 11.0143 19.9901C10.4848 19.4593 10.0654 18.8293 9.77982 18.1361C9.49428 17.4429 9.34832 16.7001 9.35028 15.9504C9.35029 14.8196 9.6858 13.7143 10.3144 12.7742C10.9429 11.8342 11.8362 11.1018 12.8812 10.6698C13.9263 10.2377 15.076 10.1254 16.1848 10.3471C17.2937 10.5688 18.3118 11.1145 19.1104 11.9152C19.9089 12.7158 20.452 13.7354 20.6708 14.8448C20.8896 15.9543 20.7743 17.1037 20.3395 18.1476C19.9047 19.1915 19.17 20.0829 18.2283 20.7089C17.2866 21.335 16.1804 21.6676 15.0496 21.6647ZM21.0331 11.3581C20.7024 11.3231 20.3964 11.167 20.174 10.9198C19.9516 10.6726 19.8285 10.3518 19.8285 10.0193C19.8285 9.68678 19.9516 9.36602 20.174 9.11883C20.3964 8.87164 20.7024 8.7155 21.0331 8.68049C21.3637 8.7155 21.6698 8.87164 21.8922 9.11883C22.1146 9.36602 22.2376 9.68678 22.2376 10.0193C22.2376 10.3518 22.1146 10.6726 21.8922 10.9198C21.6698 11.167 21.3637 11.3231 21.0331 11.3581Z" fill="#B580D1"/>
</svg>
