<svg width="31" height="31" viewBox="0 0 31 31" fill="none" xmlns="http://www.w3.org/2000/svg">
<path d="M15.0496 12.052C14.3158 12.052 13.5986 12.2695 12.9885 12.6772C12.3785 13.0848 11.903 13.6642 11.6222 14.3421C11.3414 15.0199 11.2679 15.7658 11.4111 16.4855C11.5542 17.2051 11.9075 17.8661 12.4264 18.3849C12.9452 18.9037 13.6062 19.2571 14.3258 19.4002C15.0455 19.5434 15.7914 19.4699 16.4692 19.1891C17.1471 18.9083 17.7265 18.4328 18.1341 17.8228C18.5418 17.2127 18.7593 16.4954 18.7593 15.7617C18.7593 15.2746 18.6634 14.7921 18.4769 14.3421C18.2905 13.892 18.0173 13.483 17.6728 13.1385C17.3283 12.794 16.9193 12.5208 16.4692 12.3343C16.0191 12.1479 15.5367 12.052 15.0496 12.052ZM29.9036 8.38706C29.8957 7.23189 29.683 6.08726 29.2753 5.00639C28.9751 4.21546 28.5105 3.49719 27.9123 2.89898C27.3141 2.30076 26.5958 1.83621 25.8049 1.53596C24.724 1.12828 23.5794 0.915559 22.4242 0.90769C20.4946 0.802978 19.9261 0.802979 15.0496 0.802979C10.173 0.802979 9.60458 0.802978 7.6749 0.90769C6.51973 0.915559 5.3751 1.12828 4.29423 1.53596C3.5033 1.83621 2.78503 2.30076 2.18682 2.89898C1.5886 3.49719 1.12405 4.21546 0.823799 5.00639C0.416119 6.08726 0.203401 7.23189 0.195531 8.38706C0.0908202 10.3167 0.0908203 10.8852 0.0908203 15.7617C0.0908203 20.6383 0.0908202 21.2067 0.195531 23.1364C0.211633 24.2956 0.424063 25.4438 0.823799 26.532C1.12272 27.3193 1.58689 28.0334 2.18505 28.6262C2.78069 29.228 3.5005 29.6926 4.29423 29.9875C5.3751 30.3952 6.51973 30.6079 7.6749 30.6158C9.60458 30.7205 10.173 30.7205 15.0496 30.7205C19.9261 30.7205 20.4946 30.7205 22.4242 30.6158C23.5794 30.6079 24.724 30.3952 25.8049 29.9875C26.5986 29.6926 27.3184 29.228 27.9141 28.6262C28.5122 28.0334 28.9764 27.3193 29.2753 26.532C29.6826 25.4458 29.8953 24.2964 29.9036 23.1364C30.0083 21.2067 30.0083 20.6383 30.0083 15.7617C30.0083 10.8852 30.0083 10.3167 29.9036 8.38706ZM26.1041 20.3541C26.0561 21.2772 25.8591 22.1864 25.5207 23.0466C25.2303 23.7642 24.7986 24.416 24.2512 24.9634C23.7039 25.5107 23.052 25.9424 22.3345 26.2328C21.4661 26.5524 20.5518 26.7292 19.6269 26.7564H10.4722C9.54734 26.7292 8.63299 26.5524 7.76466 26.2328C7.02286 25.9572 6.35297 25.5174 5.80506 24.9464C5.26306 24.4098 4.84448 23.7615 4.57844 23.0466C4.25766 22.1792 4.08571 21.2638 4.06985 20.3391V11.1843C4.08571 10.2596 4.25766 9.34425 4.57844 8.47682C4.85411 7.73502 5.29388 7.06512 5.8649 6.51722C6.40391 5.97814 7.05152 5.56 7.76466 5.2906C8.63299 4.97109 9.54734 4.79429 10.4722 4.76705H19.6269C20.5518 4.79429 21.4661 4.97109 22.3345 5.2906C23.0763 5.56626 23.7462 6.00604 24.2941 6.57705C24.8361 7.1137 25.2547 7.76199 25.5207 8.47682C25.8402 9.34515 26.017 10.2595 26.0442 11.1843V15.7617C26.0442 18.8432 26.149 19.1574 26.1041 20.3391V20.3541ZM23.7107 9.22475C23.5326 8.74156 23.2518 8.30276 22.8876 7.93862C22.5235 7.57448 22.0847 7.29367 21.6015 7.11557C20.938 6.88559 20.2393 6.7742 19.5372 6.78648H10.5619C9.85629 6.79337 9.15742 6.92505 8.49764 7.17541C8.02184 7.34542 7.58768 7.61476 7.22402 7.96553C6.86036 8.31629 6.57553 8.74045 6.38845 9.20979C6.17122 9.87601 6.06509 10.5734 6.07432 11.2741V20.2493C6.08915 20.9542 6.22057 21.6517 6.46325 22.3137C6.64135 22.7968 6.92216 23.2356 7.2863 23.5998C7.65044 23.9639 8.08924 24.2447 8.57243 24.4228C9.21067 24.6576 9.8823 24.7889 10.5619 24.8118H19.5372C20.2428 24.8049 20.9417 24.6732 21.6015 24.4228C22.0847 24.2447 22.5235 23.9639 22.8876 23.5998C23.2518 23.2356 23.5326 22.7968 23.7107 22.3137C23.961 21.6539 24.0927 20.955 24.0996 20.2493V11.2741C24.1 10.5677 23.9681 9.86756 23.7107 9.20979V9.22475ZM15.0496 21.476C14.2999 21.476 13.5575 21.3281 12.8651 21.0407C12.1726 20.7534 11.5437 20.3322 11.0143 19.8014C10.4848 19.2706 10.0654 18.6405 9.77982 17.9473C9.49428 17.2541 9.34832 16.5114 9.35028 15.7617C9.35029 14.6309 9.6858 13.5255 10.3144 12.5855C10.9429 11.6455 11.8362 10.9131 12.8812 10.481C13.9263 10.049 15.076 9.9367 16.1848 10.1584C17.2937 10.3801 18.3118 10.9258 19.1104 11.7265C19.9089 12.5271 20.452 13.5467 20.6708 14.6561C20.8896 15.7656 20.7743 16.915 20.3395 17.9589C19.9047 19.0027 19.17 19.8941 18.2283 20.5202C17.2866 21.1463 16.1804 21.4789 15.0496 21.476ZM21.0331 11.1694C20.7024 11.1344 20.3964 10.9782 20.174 10.7311C19.9516 10.4839 19.8285 10.1631 19.8285 9.83058C19.8285 9.49806 19.9516 9.1773 20.174 8.93011C20.3964 8.68292 20.7024 8.52678 21.0331 8.49177C21.3637 8.52678 21.6698 8.68292 21.8922 8.93011C22.1146 9.1773 22.2376 9.49806 22.2376 9.83058C22.2376 10.1631 22.1146 10.4839 21.8922 10.7311C21.6698 10.9782 21.3637 11.1344 21.0331 11.1694Z" fill="white"/>
</svg>
