<svg width="27" height="28" viewBox="0 0 27 28" fill="none" xmlns="http://www.w3.org/2000/svg">
<path d="M24.8609 0.939941H2.84799C1.64516 0.939941 0.594238 1.80541 0.594238 2.99411V25.0559C0.594238 26.2511 1.64516 27.3162 2.84799 27.3162H24.8545C26.0638 27.3162 26.9704 26.2441 26.9704 25.0559V2.99411C26.9775 1.80541 26.0638 0.939941 24.8609 0.939941ZM8.77027 22.9258H4.99164V11.1772H8.77027V22.9258ZM7.01166 9.39093H6.98458C5.77528 9.39093 4.99223 8.49073 4.99223 7.36385C4.99223 6.21637 5.79588 5.33736 7.03227 5.33736C8.26865 5.33736 9.0252 6.20989 9.05228 7.36385C9.05169 8.49073 8.26865 9.39093 7.01166 9.39093ZM22.5801 22.9258H18.8015V16.5019C18.8015 14.9629 18.2516 13.9114 16.8845 13.9114C15.84 13.9114 15.2218 14.6179 14.9469 15.3062C14.8439 15.5534 14.8162 15.8902 14.8162 16.234V22.9258H11.0376V11.1772H14.8162V12.8122C15.3661 12.0291 16.2251 10.9023 18.2239 10.9023C20.7043 10.9023 22.5807 12.5372 22.5807 16.0621L22.5801 22.9258Z" fill="white"/>
</svg>
