<svg width="27" height="27" viewBox="0 0 27 27" fill="none" xmlns="http://www.w3.org/2000/svg">
<path d="M24.8609 0.128662H2.84799C1.64516 0.128662 0.594238 0.994132 0.594238 2.18283V24.2447C0.594238 25.4398 1.64516 26.5049 2.84799 26.5049H24.8545C26.0638 26.5049 26.9704 25.4328 26.9704 24.2447V2.18283C26.9775 0.994132 26.0638 0.128662 24.8609 0.128662ZM8.77027 22.1146H4.99164V10.3659H8.77027V22.1146ZM7.01166 8.57966H6.98458C5.77528 8.57966 4.99223 7.67945 4.99223 6.55257C4.99223 5.40509 5.79588 4.52608 7.03227 4.52608C8.26865 4.52608 9.0252 5.39861 9.05228 6.55257C9.05169 7.67945 8.26865 8.57966 7.01166 8.57966ZM22.5801 22.1146H18.8015V15.6906C18.8015 14.1516 18.2516 13.1001 16.8845 13.1001C15.84 13.1001 15.2218 13.8066 14.9469 14.4949C14.8439 14.7422 14.8162 15.0789 14.8162 15.4228V22.1146H11.0376V10.3659H14.8162V12.0009C15.3661 11.2179 16.2251 10.091 18.2239 10.091C20.7043 10.091 22.5807 11.726 22.5807 15.2508L22.5801 22.1146Z" fill="#B580D1"/>
</svg>
