<svg width="18" height="22" viewBox="0 0 18 22" fill="none" xmlns="http://www.w3.org/2000/svg">
<path d="M9.40001 0.5C7.13986 0.50258 4.97304 1.3726 3.37487 2.91922C1.7767 4.46584 0.877675 6.56276 0.875009 8.75C0.872302 10.5374 1.47562 12.2763 2.59241 13.7C2.59241 13.7 2.82491 13.9963 2.86288 14.039L9.40001 21.5L15.9402 14.0353C15.9743 13.9955 16.2076 13.7 16.2076 13.7L16.2084 13.6978C17.3246 12.2747 17.9277 10.5366 17.925 8.75C17.9223 6.56276 17.0233 4.46584 15.4251 2.91922C13.827 1.3726 11.6602 0.50258 9.40001 0.5ZM9.40001 11.75C8.78689 11.75 8.18753 11.5741 7.67774 11.2444C7.16795 10.9148 6.77061 10.4462 6.53598 9.89805C6.30135 9.34987 6.23996 8.74667 6.35957 8.16473C6.47919 7.58279 6.77443 7.04824 7.20798 6.62868C7.64152 6.20912 8.19389 5.9234 8.79523 5.80764C9.39657 5.69189 10.0199 5.7513 10.5863 5.97836C11.1528 6.20542 11.6369 6.58994 11.9776 7.08329C12.3182 7.57664 12.5 8.15666 12.5 8.75C12.499 9.54535 12.172 10.3078 11.5909 10.8702C11.0098 11.4326 10.2219 11.749 9.40001 11.75Z" fill="white"/>
</svg>
